<svg width="32" height="32" viewBox="0 0 32 32" fill="none" xmlns="http://www.w3.org/2000/svg">
<path fill-rule="evenodd" clip-rule="evenodd" d="M24.8891 29.3035C22.2579 31.0616 19.1645 32 16 32C11.7565 32 7.68686 30.3143 4.68628 27.3137C1.6857 24.3131 -7.62939e-06 20.2435 -7.62939e-06 16C-7.62939e-06 12.8355 0.938375 9.74206 2.69648 7.11088C4.45458 4.47969 6.95344 2.42893 9.87706 1.21793C12.8007 0.00692749 16.0177 -0.309925 19.1214 0.307438C22.2251 0.924803 25.0761 2.44865 27.3137 4.68629C29.5513 6.92393 31.0752 9.77486 31.6926 12.8786C32.3099 15.9823 31.9931 19.1993 30.7821 22.1229C29.5711 25.0466 27.5203 27.5454 24.8891 29.3035ZM24.1484 3.80511C21.7364 2.19352 18.9008 1.33334 16 1.33334C12.1101 1.33334 8.37963 2.87857 5.62909 5.6291C2.87856 8.37963 1.33332 12.1102 1.33332 16C1.33332 18.9008 2.19351 21.7364 3.8051 24.1484C5.4167 26.5603 7.70732 28.4401 10.3873 29.5502C13.0673 30.6603 16.0163 30.9508 18.8613 30.3849C21.7064 29.8189 24.3197 28.4221 26.3709 26.3709C28.4221 24.3197 29.8189 21.7064 30.3848 18.8613C30.9508 16.0163 30.6603 13.0673 29.5502 10.3873C28.4401 7.70733 26.5603 5.41671 24.1484 3.80511ZM11.48 11.4666L10.5333 10.52L5.05333 16L10.5333 21.48L11.48 20.5333L7.61333 16.6666L26.6667 16.6666V15.3333L7.61333 15.3333L11.48 11.4666Z" fill="#0B193D"/>
</svg>
