<svg width="20" height="34" viewBox="0 0 20 34" fill="none" xmlns="http://www.w3.org/2000/svg">
<path d="M10 22C8.89543 22 8 22.8954 8 24C8 25.1046 8.89543 26 10 26C11.1046 26 12 25.1046 12 24C12 22.8954 11.1046 22 10 22Z" fill="#0B193D"/>
<path d="M10 15C8.89543 15 8 15.8954 8 17C8 18.1046 8.89543 19 10 19C11.1046 19 12 18.1046 12 17C12 15.8954 11.1046 15 10 15Z" fill="#0B193D"/>
<path d="M10 8C8.89543 8 8 8.89543 8 10C8 11.1046 8.89543 12 10 12C11.1046 12 12 11.1046 12 10C12 8.89543 11.1046 8 10 8Z" fill="#0B193D"/>
</svg>
