<svg width="24" height="24" viewBox="0 0 24 24" fill="none" xmlns="http://www.w3.org/2000/svg">
<path fill-rule="evenodd" clip-rule="evenodd" d="M12 24C18.6274 24 24 18.6274 24 12C24 5.37258 18.6274 0 12 0C5.37258 0 0 5.37258 0 12C0 18.6274 5.37258 24 12 24ZM12 23C18.0751 23 23 18.0751 23 12C23 5.92487 18.0751 1 12 1C5.92487 1 1 5.92487 1 12C1 18.0751 5.92487 23 12 23ZM6.6967 7.40381L7.40381 6.6967L12 11.2929L16.5962 6.69672L17.3033 7.40382L12.7071 12L17.3033 16.5962L16.5962 17.3033L12 12.7071L7.40381 17.3033L6.6967 16.5962L11.2929 12L6.6967 7.40381Z" fill="#0B193D"/>
</svg>
