<svg width="48" height="48" viewBox="0 0 48 48" fill="none" xmlns="http://www.w3.org/2000/svg">
<g clip-path="url(#clip0)">
<path d="M24.2 1.81851e-06C19.1078 1.81851e-06 14.2242 2.02285 10.6236 5.62355C7.02285 9.22425 5 14.1078 5 19.2C5.00227 21.1364 5.29347 23.0616 5.864 24.912C6.056 25.488 6.248 26.064 6.488 26.64C9.368 33.744 16.112 39.912 24.2 48C32.288 39.912 39.008 33.744 41.888 26.688C43.1247 23.7681 43.6189 20.5872 43.3266 17.4297C43.0342 14.2722 41.9643 11.2362 40.2124 8.59297C38.4606 5.94975 36.0814 3.78159 33.2872 2.28213C30.4931 0.782675 27.3711 -0.00137817 24.2 1.81851e-06Z" fill="#0B193D"/>
<path d="M33.5336 5.2317C30.7709 3.38569 27.5228 2.40039 24.2 2.40039C19.7444 2.40039 15.4712 4.17039 12.3206 7.321C9.17002 10.4716 7.40002 14.7448 7.40002 19.2004C7.40002 22.5231 8.38533 25.7712 10.2313 28.534C12.0773 31.2967 14.7011 33.45 17.7709 34.7216C20.8407 35.9931 24.2187 36.3258 27.4775 35.6776C30.7364 35.0294 33.7299 33.4293 36.0794 31.0798C38.4289 28.7303 40.029 25.7368 40.6772 22.4779C41.3254 19.219 40.9928 15.8411 39.7212 12.7713C38.4496 9.70151 36.2964 7.07771 33.5336 5.2317Z" fill="#0B193D"/>
<path d="M33.5336 5.2317C30.7709 3.38569 27.5228 2.40039 24.2 2.40039C19.7444 2.40039 15.4712 4.17039 12.3206 7.321C9.17002 10.4716 7.40002 14.7448 7.40002 19.2004C7.40002 22.5231 8.38533 25.7712 10.2313 28.534C12.0773 31.2967 14.7011 33.45 17.7709 34.7216C20.8407 35.9931 24.2187 36.3258 27.4775 35.6776C30.7364 35.0294 33.7299 33.4293 36.0794 31.0798C38.4289 28.7303 40.029 25.7368 40.6772 22.4779C41.3254 19.219 40.9928 15.8411 39.7212 12.7713C38.4496 9.70151 36.2964 7.07771 33.5336 5.2317Z" fill="white"/>
</g>
<defs>
<clipPath id="clip0">
<rect width="48" height="48" fill="white"/>
</clipPath>
</defs>
</svg>
