<svg width="34" height="20" viewBox="0 0 34 20" fill="none" xmlns="http://www.w3.org/2000/svg">
<rect width="20" height="34" transform="translate(34) rotate(90)" fill="#0B193D" fill-opacity="0.25"/>
<path d="M22 10C22 11.1046 22.8954 12 24 12C25.1046 12 26 11.1046 26 10C26 8.89543 25.1046 8 24 8C22.8954 8 22 8.89543 22 10Z" fill="white"/>
<path d="M15 10C15 11.1046 15.8954 12 17 12C18.1046 12 19 11.1046 19 10C19 8.89543 18.1046 8 17 8C15.8954 8 15 8.89543 15 10Z" fill="white"/>
<path d="M8 10C8 11.1046 8.89543 12 10 12C11.1046 12 12 11.1046 12 10C12 8.89543 11.1046 8 10 8C8.89543 8 8 8.89543 8 10Z" fill="white"/>
</svg>
