<svg width="133" height="66" viewBox="0 0 133 66" fill="none" xmlns="http://www.w3.org/2000/svg">
<path d="M32.246 0V30.2644C32.246 31.2864 32.0453 32.2984 31.6554 33.2426C31.2655 34.1868 30.6941 35.0447 29.9737 35.7672C29.2533 36.4897 28.3981 37.0627 27.457 37.4535C26.5158 37.8443 25.5072 38.0452 24.4886 38.0447H24.2504C23.9011 38.0741 23.5457 38.0888 23.1841 38.0888C22.7847 38.0888 22.3963 38.0888 22.0262 38.0336C20.0391 37.9346 18.166 37.0729 16.7944 35.6267C15.4228 34.1806 14.6576 32.2608 14.6573 30.2644V0H0V32.2499C0 44.1226 6.29163 51.2925 17.3542 51.2925C24.6022 51.2925 28.9078 47.3656 32.246 43.0673V51.2925H46.9032V0H32.246Z" fill="black"/>
<path d="M55.6976 0H70.3548V7.37214C73.8836 2.49292 78.6508 0.0183844 86.28 0.0183844C98.2036 0 109.563 8.42373 109.563 25.547V25.7382C109.563 42.8651 98.4052 51.2888 86.2946 51.2888C78.5702 51.2888 73.803 48.715 70.3695 44.5858V66H55.6976V0ZM97.0567 25.4219V25.2124C97.0567 16.0753 90.9226 10.0195 83.6563 10.0195C76.39 10.0195 70.3548 16.0753 70.3548 25.2124V25.4219C70.3548 34.559 76.39 40.6185 83.6563 40.6185C90.9226 40.6185 97.0567 34.6583 97.0567 25.4219Z" fill="black"/>
<path d="M125.671 51.2925C129.719 51.2925 133 48.0001 133 43.9387C133 39.8774 129.719 36.585 125.671 36.585C121.624 36.585 118.343 39.8774 118.343 43.9387C118.343 48.0001 121.624 51.2925 125.671 51.2925Z" fill="black"/>
</svg>
