<svg width="278" height="220" viewBox="0 0 278 220" fill="none" xmlns="http://www.w3.org/2000/svg">
<rect width="278" height="220" fill="#E1E5E9"/>
<path d="M115.364 84L162.636 136" stroke="#6C758A" stroke-linecap="round" stroke-linejoin="round"/>
<path d="M130.496 88.7532L130.998 88H146.998L150.998 94H159C160.061 94 161.078 94.4214 161.828 95.1716C162.579 95.9217 163 96.9391 163 98V124.507" stroke="#6C758A" stroke-linecap="round" stroke-linejoin="round"/>
<path d="M157.182 130H119C117.939 130 116.922 129.579 116.172 128.828C115.421 128.078 115 127.061 115 126V98C115 96.9391 115.421 95.9217 116.172 95.1716C116.922 94.4214 117.939 94 119 94H124.455" stroke="#6C758A" stroke-linecap="round" stroke-linejoin="round"/>
<path d="M145.535 117.188C144.683 118.088 143.655 118.801 142.515 119.285C141.375 119.769 140.147 120.012 138.908 119.999C137.67 119.987 136.447 119.719 135.317 119.212C134.187 118.705 133.174 117.97 132.341 117.054C131.507 116.137 130.872 115.059 130.475 113.886C130.078 112.712 129.927 111.47 130.032 110.236C130.138 109.002 130.496 107.803 131.086 106.713C131.676 105.624 132.484 104.669 133.46 103.906" stroke="#6C758A" stroke-linecap="round" stroke-linejoin="round"/>
</svg>
