<svg width="24" height="24" viewBox="0 0 24 24" fill="none" xmlns="http://www.w3.org/2000/svg">
<circle cx="12" cy="12" r="12" fill="#F2BA2D"/>
<path fill-rule="evenodd" clip-rule="evenodd" d="M5.09961 21.8186C5.66111 18.5152 8.53699 16 12.0003 16C15.4637 16 18.3395 18.5152 18.901 21.8186C18.6011 22.0298 18.2911 22.2275 17.9718 22.4111C17.6759 19.3738 15.1153 17 12.0003 17C8.88534 17 6.32477 19.3738 6.02887 22.4111C5.70958 22.2275 5.39954 22.0298 5.09961 21.8186Z" fill="#0B193D"/>
<path fill-rule="evenodd" clip-rule="evenodd" d="M12 15C14.7614 15 17 12.7614 17 10C17 7.23858 14.7614 5 12 5C9.23858 5 7 7.23858 7 10C7 12.7614 9.23858 15 12 15ZM12 14C14.2091 14 16 12.2091 16 10C16 7.79086 14.2091 6 12 6C9.79086 6 8 7.79086 8 10C8 12.2091 9.79086 14 12 14Z" fill="#0B193D"/>
</svg>
