<svg width="105" height="24" viewBox="0 0 105 24" fill="none" xmlns="http://www.w3.org/2000/svg">
<path d="M9.51694 4.58789V13.4895C9.51694 13.7901 9.45772 14.0877 9.34265 14.3655C9.22758 14.6432 9.05892 14.8955 8.84631 15.108C8.63369 15.3205 8.3813 15.489 8.10353 15.604C7.82577 15.7189 7.52808 15.778 7.22747 15.7779H7.15717C7.05407 15.7865 6.94917 15.7908 6.84247 15.7908C6.72459 15.7908 6.60995 15.7908 6.50072 15.7746C5.91426 15.7455 5.36143 15.492 4.95662 15.0667C4.55181 14.6413 4.32599 14.0767 4.32588 13.4895V4.58789H0V14.0735C0 17.5645 1.85689 19.6744 5.12185 19.6744C7.261 19.6744 8.53172 18.5194 9.51694 17.2552V19.6744H13.8428V4.58789H9.51694Z" fill="white"/>
<path d="M16.4384 4.58789H20.7642V6.75083C21.8057 5.31572 23.2127 4.58789 25.4643 4.58789C28.9823 4.58789 32.3316 7.06554 32.3316 12.103V12.1603C32.3316 17.1968 29.0386 19.6744 25.4643 19.6744C23.1846 19.6744 21.7776 18.9174 20.7642 17.704V24.0003H16.4384V4.58789ZM28.6449 12.0652V12.0046C28.6449 9.31716 26.8345 7.53706 24.69 7.53706C22.5454 7.53706 20.7642 9.31608 20.7642 12.0046V12.0663C20.7642 14.7537 22.5454 16.5371 24.69 16.5371C26.8345 16.5371 28.6449 14.7829 28.6449 12.0652Z" fill="white"/>
<path d="M34.9315 4.58683H36.2293V8.89324C37.3832 6.3042 39.7192 4.50247 42.5894 4.58683V5.88459H42.4488C39.1493 5.88459 36.2293 8.64126 36.2293 13.284V19.6733H34.9315V4.58683Z" fill="white"/>
<path d="M55.9542 12.6673C55.9774 12.4801 55.9864 12.2914 55.9812 12.1028C55.9812 8.3393 53.9718 5.34687 50.7155 4.71421C50.3117 4.63572 49.9016 4.59409 49.4902 4.58984H49.3053C45.4661 4.64067 42.5851 7.9716 42.5851 12.0758V12.1331C42.5851 15.7971 44.748 18.3786 47.5847 19.3389C48.2406 19.5614 48.9285 19.675 49.6211 19.6753C52.3518 19.6753 54.0962 18.5505 55.5594 16.9716L54.6034 16.1281C53.3933 17.3977 51.9289 18.3862 49.6773 18.3862C49.0824 18.3852 48.4926 18.2752 47.9372 18.0617C45.8825 17.2798 44.2256 15.4846 44.044 12.6738L55.9542 12.6673ZM47.8486 6.08768C48.3306 5.9333 48.8338 5.85521 49.3399 5.85625C52.6319 5.85625 54.2649 8.53072 54.4909 11.4291H44.0483C44.2321 8.83137 45.7462 6.75927 47.8486 6.08768Z" fill="white"/>
<path d="M58.5497 4.58789H59.8475V7.59979C60.8327 5.91053 62.4084 4.58789 65.0256 4.58789C68.6572 4.58789 70.6871 7.0385 70.6871 10.4981V19.6744H69.3893V10.7534C69.3893 7.79661 67.7563 5.85537 64.8288 5.85537C62.0169 5.85537 59.8475 7.96641 59.8475 10.9772V19.6744H58.5497V4.58789Z" fill="white"/>
<path d="M73.7963 0H75.0941V4.5876H80.137V5.88536H75.0941V15.5926C75.0941 17.6474 76.3324 18.3796 78.0206 18.3796C78.7257 18.3796 79.3183 18.2379 80.1327 17.8735V19.1658C79.4021 19.5098 78.603 19.6836 77.7956 19.6741C75.5451 19.6741 73.7942 18.4618 73.7942 15.7332L73.7963 0Z" fill="white"/>
<path d="M92.5934 6.89446C92.4206 6.63172 92.2217 6.38715 91.9996 6.16447C91.1204 5.28523 89.8994 4.76612 88.3529 4.62661C88.1366 4.60715 87.9149 4.59417 87.6867 4.58984H87.4704H87.239C85.354 4.62553 83.8918 5.09597 82.3778 5.82705L82.8839 7.03721C83.3862 6.77643 83.9071 6.55304 84.4423 6.36886C85.3885 6.04373 86.3824 5.87924 87.3828 5.8822C87.6763 5.88094 87.9695 5.89719 88.261 5.93087C90.6846 6.20124 92.1089 7.65041 92.1089 10.273V11.0624C90.9035 10.7291 89.6648 10.5303 88.4156 10.4698C88.0815 10.4525 87.7289 10.4438 87.3525 10.4438C83.6377 10.4438 81.08 12.105 81.08 15.1158V15.171C81.08 17.3588 82.5941 18.7398 84.4477 19.3379C85.152 19.5618 85.8868 19.6752 86.6258 19.6742C89.3544 19.6742 91.129 18.2975 92.1132 16.9446V19.6742H93.4109V10.2189C93.4099 8.89085 93.1774 7.78667 92.5934 6.89446ZM92.1413 13.9608C92.1413 16.5779 89.6366 18.3797 86.7091 18.3797C85.4329 18.3797 84.2325 17.9709 83.4517 17.2193C83.1614 16.9461 82.9309 16.6158 82.7747 16.2491C82.6185 15.8824 82.5401 15.4873 82.5443 15.0888V15.0325C82.5335 14.5909 82.6243 14.1527 82.8095 13.7516C82.9947 13.3506 83.2696 12.9974 83.6128 12.7193C84.412 12.0596 85.6525 11.68 87.2747 11.68C88.9181 11.6854 90.5539 11.9035 92.1413 12.3288V13.9608Z" fill="white"/>
<path d="M96.0573 0.261719H97.3551V19.6741H96.0573V0.261719Z" fill="white"/>
<path d="M102.114 19.6735C103.308 19.6735 104.277 18.7052 104.277 17.5106C104.277 16.316 103.308 15.3477 102.114 15.3477C100.919 15.3477 99.9506 16.316 99.9506 17.5106C99.9506 18.7052 100.919 19.6735 102.114 19.6735Z" fill="white"/>
</svg>
