<svg width="24" height="24" viewBox="0 0 24 24" fill="none" xmlns="http://www.w3.org/2000/svg">
<path d="M22 5H16V1C16 0.734784 15.8946 0.48043 15.7071 0.292893C15.5196 0.105357 15.2652 0 15 0L9 0C8.73478 0 8.48043 0.105357 8.29289 0.292893C8.10536 0.48043 8 0.734784 8 1V5H2C1.46957 5 0.960859 5.21071 0.585786 5.58579C0.210714 5.96086 0 6.46957 0 7L0 22C0 22.5304 0.210714 23.0391 0.585786 23.4142C0.960859 23.7893 1.46957 24 2 24H22C22.5304 24 23.0391 23.7893 23.4142 23.4142C23.7893 23.0391 24 22.5304 24 22V7C24 6.46957 23.7893 5.96086 23.4142 5.58579C23.0391 5.21071 22.5304 5 22 5ZM9 1.5C9 1.36739 9.05268 1.24021 9.14645 1.14645C9.24021 1.05268 9.36739 1 9.5 1H14.5C14.6326 1 14.7598 1.05268 14.8536 1.14645C14.9473 1.24021 15 1.36739 15 1.5V5H9V1.5ZM2.5 23C2.10218 23 1.72064 22.842 1.43934 22.5607C1.15804 22.2794 1 21.8978 1 21.5V7.5C1 7.10218 1.15804 6.72064 1.43934 6.43934C1.72064 6.15804 2.10218 6 2.5 6H4V23H2.5ZM5 23V6H19V23H5ZM23 21.5C23 21.8978 22.842 22.2794 22.5607 22.5607C22.2794 22.842 21.8978 23 21.5 23H20V6H21.5C21.8978 6 22.2794 6.15804 22.5607 6.43934C22.842 6.72064 23 7.10218 23 7.5V21.5Z" fill="#0B193D"/>
</svg>
