<svg width="24" height="24" viewBox="0 0 24 24" fill="none" xmlns="http://www.w3.org/2000/svg">
<g clip-path="url(#clip0_2208:4068)">
<path d="M21.6642 10.1794V10.1537V6.27779C21.6642 4.53234 20.4321 3.89062 19.277 3.89062H4.64599C3.49091 3.89062 2.25882 4.50667 2.25882 6.27779V10.1537V10.1794C1.10374 10.3077 0 11.0778 0 12.8489V15.8778C0 16.3912 0.410695 16.8019 0.924064 16.8019H1.23209V19.189C1.23209 19.7024 1.64278 20.1131 2.15615 20.1131H3.02888C3.54225 20.1131 3.95294 19.7024 3.95294 19.189V16.7762H20.0471V19.189C20.0471 19.7024 20.4578 20.1131 20.9711 20.1131H21.8438C22.3572 20.1131 22.7679 19.7024 22.7679 19.189V16.7762H23.0759C23.5893 16.7762 24 16.3655 24 15.8521V12.8489C23.923 11.0778 22.8193 10.3077 21.6642 10.1794ZM3.13155 6.27779H3.18289C3.18289 5.07137 3.97861 4.81469 4.64599 4.81469H19.277C19.9444 4.81469 20.7401 5.07137 20.7401 6.27779V10.1537H20.0471V7.94624C20.0471 7.43287 19.6364 7.02218 19.123 7.02218H13.4759C12.9626 7.02218 12.5519 7.43287 12.5519 7.94624V10.1537H11.4738V7.94624C11.4738 7.43287 11.0631 7.02218 10.5497 7.02218H4.90267C4.3893 7.02218 3.97861 7.43287 3.97861 7.94624V10.1537H3.13155V6.27779ZM19.123 7.94624V10.1537H13.4759V7.94624H19.123ZM10.6011 7.94624V10.1537H4.95401V7.94624H10.6011ZM3.00321 19.189H2.13048V16.7762H3.00321V19.189ZM21.7925 19.189H20.9198V16.7762H21.7925V19.189ZM22.9989 15.8778H21.7925H20.9198H3.00321H2.13048H0.898396V14.5174H22.9989V15.8778ZM22.9989 13.5933H0.898396V12.8489C0.898396 11.3088 2.02781 11.0778 2.66952 11.0778H3.15722H4.92834H10.5754H13.4759H19.123H20.7401H21.2278C21.8952 11.0778 22.9989 11.3088 22.9989 12.8489V13.5933Z" fill="#0B193D"/>
</g>
<defs>
<clipPath id="clip0_2208:4068">
<rect width="24" height="24" fill="white"/>
</clipPath>
</defs>
</svg>
