<svg width="24" height="24" viewBox="0 0 24 24" fill="none" xmlns="http://www.w3.org/2000/svg">
<g clip-path="url(#clip0)">
<path d="M12 0C9.62663 0 7.30655 0.703788 5.33316 2.02236C3.35977 3.34094 1.8217 5.21509 0.913451 7.4078C0.00519943 9.60051 -0.232441 12.0133 0.230582 14.3411C0.693605 16.6689 1.83649 18.8071 3.51472 20.4853C5.19295 22.1635 7.33115 23.3064 9.65892 23.7694C11.9867 24.2324 14.3995 23.9948 16.5922 23.0866C18.7849 22.1783 20.6591 20.6402 21.9776 18.6668C23.2962 16.6935 24 14.3734 24 12C24 8.8174 22.7357 5.76515 20.4853 3.51472C18.2348 1.26428 15.1826 0 12 0V0ZM12 23C9.82441 23 7.69767 22.3549 5.88873 21.1462C4.07979 19.9375 2.66989 18.2195 1.83733 16.2095C1.00477 14.1995 0.78693 11.9878 1.21137 9.85401C1.6358 7.72022 2.68345 5.7602 4.22183 4.22183C5.76021 2.68345 7.72022 1.6358 9.85401 1.21136C11.9878 0.786924 14.1995 1.00476 16.2095 1.83733C18.2195 2.66989 19.9375 4.07979 21.1462 5.88873C22.3549 7.69767 23 9.82441 23 12C23 14.9174 21.8411 17.7153 19.7782 19.7782C17.7153 21.8411 14.9174 23 12 23Z" fill="#0B193D"/>
<path d="M12 2C10.2404 1.99895 8.51179 2.46218 6.98856 3.3429C5.46532 4.22363 4.20143 5.49067 3.32449 7.01609C2.44756 8.54151 1.98864 10.2713 1.99407 12.0308C1.99949 13.7903 2.46907 15.5173 3.35539 17.0373C4.24171 18.5573 5.51339 19.8165 7.04203 20.6878C8.57067 21.5591 10.3021 22.0117 12.0616 21.9998C13.8211 21.9879 15.5463 21.5119 17.063 20.62C18.5797 19.7281 19.8343 18.4518 20.7 16.92C20.8525 16.6583 20.9894 16.3879 21.11 16.11C21.6981 14.8197 22.0017 13.418 22 12C22 10.6868 21.7413 9.38642 21.2388 8.17317C20.7362 6.95991 19.9996 5.85752 19.071 4.92893C18.1425 4.00035 17.0401 3.26375 15.8268 2.76121C14.6135 2.25866 13.3132 2 12 2ZM12 3C14.2006 3.00151 16.3243 3.80921 17.9698 5.27041C19.6153 6.7316 20.6683 8.74502 20.93 10.93C20.4559 10.9099 19.9976 10.7537 19.61 10.48C18.9794 10.0686 18.2428 9.84962 17.49 9.84962C16.7371 9.84962 16.0005 10.0686 15.37 10.48C14.9348 10.7965 14.4079 10.9616 13.87 10.95C13.3289 10.9616 12.7989 10.7966 12.36 10.48C11.7355 10.0558 10.9948 9.8357 10.24 9.85C9.48846 9.83712 8.75139 10.0572 8.12997 10.48C7.69738 10.8144 7.16674 10.9972 6.61997 11C6.08202 11.0116 5.55511 10.8465 5.11997 10.53C4.56309 10.1617 3.91692 9.95089 3.24997 9.92C3.71778 7.95062 4.83582 6.19643 6.4235 4.94081C8.01118 3.68518 9.97579 3.00143 12 3ZM3.08997 10.77C3.5989 10.7764 4.09395 10.9368 4.50997 11.23C5.13199 11.6505 5.86936 11.8671 6.61997 11.85C7.37371 11.8672 8.1143 11.6507 8.73997 11.23C9.18093 10.9255 9.70411 10.7625 10.24 10.7625C10.7758 10.7625 11.299 10.9255 11.74 11.23C12.3656 11.6507 13.1062 11.8672 13.86 11.85C14.6207 11.8735 15.3696 11.6565 16 11.23C16.442 10.9282 16.9647 10.7667 17.5 10.7667C18.0352 10.7667 18.558 10.9282 19 11.23C19.5933 11.6244 20.2876 11.8397 21 11.85V12C21.0006 12.4925 20.9604 12.9841 20.88 13.47C20.4215 13.4332 19.982 13.2705 19.61 13C18.9772 12.5946 18.2415 12.3792 17.49 12.3792C16.7385 12.3792 16.0027 12.5946 15.37 13C14.9348 13.3165 14.4079 13.4816 13.87 13.47C13.3289 13.4816 12.7989 13.3166 12.36 13C11.7343 12.5793 10.9937 12.3628 10.24 12.38C9.48953 12.3642 8.75255 12.5807 8.12997 13C7.69108 13.3166 7.161 13.4816 6.61997 13.47C6.08202 13.4816 5.55511 13.3165 5.11997 13C4.49225 12.5858 3.75165 12.3762 2.99997 12.4C2.99997 12.27 2.99997 12.13 2.99997 12C2.99972 11.5883 3.0298 11.1772 3.08997 10.77ZM20.14 15.84C19.9544 15.7646 19.7768 15.6708 19.61 15.56C18.9772 15.1546 18.2415 14.9392 17.49 14.9392C16.7385 14.9392 16.0027 15.1546 15.37 15.56C14.9348 15.8765 14.4079 16.0416 13.87 16.03C13.3289 16.0416 12.7989 15.8766 12.36 15.56C11.7343 15.1393 10.9937 14.9228 10.24 14.94C9.48953 14.9242 8.75255 15.1407 8.12997 15.56C7.68739 15.866 7.15762 16.0203 6.61997 16C6.08202 16.0116 5.55511 15.8465 5.11997 15.53C4.63201 15.2301 4.08064 15.0486 3.50997 15C3.31753 14.4613 3.17689 13.9054 3.08997 13.34C3.5989 13.3464 4.09395 13.5068 4.50997 13.8C5.13053 14.2246 5.86819 14.4449 6.61997 14.43C7.37478 14.4443 8.11546 14.2242 8.73997 13.8C9.18093 13.4955 9.70411 13.3325 10.24 13.3325C10.7758 13.3325 11.299 13.4955 11.74 13.8C12.3645 14.2242 13.1052 14.4443 13.86 14.43C14.6252 14.4424 15.3746 14.2113 16 13.77C16.442 13.4682 16.9647 13.3067 17.5 13.3067C18.0352 13.3067 18.558 13.4682 19 13.77C19.5034 14.1009 20.0802 14.3034 20.68 14.36C20.5426 14.8679 20.3619 15.363 20.14 15.84ZM12 21C10.3344 20.9885 8.70476 20.515 7.29234 19.6322C5.87993 18.7494 4.74019 17.4921 3.99997 16C4.19375 16.0861 4.38092 16.1864 4.55997 16.3C5.18053 16.7246 5.91819 16.9449 6.66997 16.93C7.42478 16.9443 8.16546 16.7242 8.78997 16.3C9.23093 15.9955 9.75411 15.8325 10.29 15.8325C10.8258 15.8325 11.349 15.9955 11.79 16.3C12.4145 16.7242 13.1552 16.9443 13.91 16.93C14.6539 16.9437 15.3838 16.7271 16 16.31C16.442 16.0082 16.9647 15.8467 17.5 15.8467C18.0352 15.8467 18.558 16.0082 19 16.31C19.2212 16.4461 19.4518 16.5664 19.69 16.67C18.8879 17.9914 17.759 19.0839 16.4121 19.8423C15.0652 20.6007 13.5457 20.9994 12 21Z" fill="#0B193D"/>
</g>
<defs>
<clipPath id="clip0">
<rect width="24" height="24" fill="white"/>
</clipPath>
</defs>
</svg>
