<svg width="24" height="19" viewBox="0 0 24 19" fill="none" xmlns="http://www.w3.org/2000/svg">
<g clip-path="url(#clip0)">
<path d="M12.5 5.96V4.92L15.4 7.82L16.11 7.11L12 3L7.89001 7.11L8.60002 7.82L11.5 4.92V5.96V12.24V13.28L8.60002 10.38L7.89001 11.09L12 15.2L16.11 11.09L15.4 10.38L12.5 13.28V12.24V5.96Z" fill="#0B193D"/>
<path d="M22 0.620179C21.2113 0.223548 20.3427 0.0115317 19.46 0.000179145H19.2C18.9533 0.000179145 18.7233 0.000179145 18.51 0.000179145C17.7731 0.0679181 17.0564 0.278504 16.4 0.620179C15.7847 0.945721 15.0959 1.10757 14.4 1.09018C13.7041 1.10757 13.0153 0.945721 12.4 0.620179C11.5305 0.190219 10.5697 -0.0225244 9.6 0.000179145C8.63027 -0.0225244 7.6695 0.190219 6.8 0.620179C6.34299 0.860337 5.8438 1.00975 5.33 1.06018C5.15351 1.07128 4.97649 1.07128 4.8 1.06018C4.66353 1.07065 4.52647 1.07065 4.39 1.06018C3.83459 1.02919 3.29233 0.87913 2.8 0.620179C1.9305 0.190219 0.969728 -0.0225244 0 0.000179145L0 0.900179C0.695936 0.882789 1.38465 1.04464 2 1.37018C2.7055 1.73352 3.47816 1.94796 4.27 2.00018C4.09831 3.41717 4.00816 4.84285 4 6.27018C4 12.2702 10.77 18.2702 12 18.2702C13.53 18.2702 20 12.2702 20 6.27018C19.9901 4.47939 19.8531 2.69156 19.59 0.920179C20.1524 0.95511 20.701 1.10846 21.2 1.37018C22.0678 1.80589 23.0292 2.0222 24 2.00018V1.09018C23.3041 1.10757 22.6153 0.945721 22 0.620179ZM12 17.2602C10.92 17.2602 4.92 11.4702 4.92 6.26018C4.93069 4.83563 5.02754 3.41303 5.21 2.00018C6.04282 1.96528 6.85819 1.75035 7.6 1.37018C8.21535 1.04464 8.90406 0.882789 9.6 0.900179C10.2959 0.882789 10.9847 1.04464 11.6 1.37018C12.4678 1.80589 13.4292 2.0222 14.4 2.00018C15.3708 2.0222 16.3322 1.80589 17.2 1.37018C17.6509 1.13247 18.143 0.983121 18.65 0.930179C18.9258 2.7071 19.0695 4.50202 19.08 6.30018C19.08 11.1202 13.36 17.2602 12 17.2602Z" fill="#0B193D"/>
</g>
<defs>
<clipPath id="clip0">
<rect width="24" height="18.27" fill="white"/>
</clipPath>
</defs>
</svg>
