<svg width="18" height="21" viewBox="0 0 18 21" fill="none" xmlns="http://www.w3.org/2000/svg">
<g clip-path="url(#clip0)">
<path d="M9.93999 9.31C9.6495 9.1472 9.33034 9.04194 8.99999 9H8.60999H8.18999C7.87261 9.03317 7.5641 9.12471 7.27999 9.27C6.67322 9.5701 6.18579 10.0666 5.8969 10.6788C5.60801 11.291 5.53466 11.9829 5.68875 12.642C5.84285 13.3012 6.21534 13.8888 6.74569 14.3095C7.27604 14.7301 7.93306 14.9591 8.60999 14.9591C9.28691 14.9591 9.94394 14.7301 10.4743 14.3095C11.0046 13.8888 11.3771 13.3012 11.5312 12.642C11.6853 11.9829 11.612 11.291 11.3231 10.6788C11.0342 10.0666 10.5468 9.5701 9.93999 9.27V9.31ZM8.60999 14C8.18579 14.0002 7.7725 13.8656 7.42985 13.6155C7.0872 13.3654 6.83294 13.0129 6.70382 12.6088C6.57469 12.2047 6.57739 11.7701 6.71152 11.3676C6.84565 10.9652 7.10426 10.6158 7.44999 10.37C7.6946 10.1846 7.9786 10.058 8.27999 10H8.60999H8.93999C9.23883 10.049 9.52263 10.1653 9.76999 10.34C10.1291 10.5811 10.4004 10.9321 10.5432 11.3405C10.6859 11.7488 10.6924 12.1924 10.5618 12.6048C10.4311 13.0171 10.1702 13.376 9.81831 13.6275C9.46641 13.8791 9.04244 14.0098 8.60999 14Z" fill="#0B193D"/>
<path d="M8.60998 0C7.77998 0 7.10998 2.84 7.10998 6.34C7.10501 7.34254 7.16179 8.34444 7.27998 9.34C7.27998 9.72 7.38998 10.08 7.44998 10.4C7.69175 10.2039 7.97595 10.0669 8.27998 10C8.27998 9.71333 8.24998 9.38 8.18998 9C8.18998 8.23 8.10998 7.31 8.10998 6.31C8.10998 3.64 8.32998 1.48 8.60998 1.48C8.88998 1.48 9.10998 3.64 9.10998 6.31C9.10998 7.31 9.10998 8.23 9.02998 9H8.99998C8.99998 9.37333 8.96998 9.70667 8.90998 10C9.20882 10.049 9.49262 10.1653 9.73998 10.34C9.79998 10.02 9.85998 9.66 9.90998 9.28C10.0282 8.28444 10.0849 7.28254 10.08 6.28C10.11 2.84 9.43998 0 8.60998 0Z" fill="#0B193D"/>
<path d="M17.1 20.4901C17.68 19.9001 16.1 17.4201 13.67 14.9401C12.9725 14.2277 12.231 13.5597 11.45 12.9401C11.15 12.7101 10.85 12.5001 10.58 12.3101C10.5309 12.6089 10.4147 12.8927 10.24 13.1401L11 13.7801C11.58 14.2901 12.25 14.9201 13 15.6301C14.88 17.5201 16.26 19.2001 16.06 19.4001C15.86 19.6001 14.18 18.2201 12.29 16.3401C11.58 15.6301 10.95 14.9601 10.44 14.3401L9.79997 13.5801C9.55261 13.7548 9.26881 13.871 8.96997 13.9201C9.15997 14.1901 9.36997 14.4901 9.59997 14.7901C10.2225 15.5686 10.8903 16.3099 11.6 17.0101C14 19.5401 16.51 21.0701 17.1 20.4901Z" fill="#0B193D"/>
<path d="M0.129977 20.4901C0.709977 21.0701 3.18998 19.5401 5.66998 17.0601C6.38235 16.3626 7.05033 15.6211 7.66998 14.8401C7.89998 14.5401 8.10998 14.2401 8.29998 13.9701C8.0017 13.9191 7.71831 13.803 7.46998 13.6301L6.82998 14.3901C6.31998 14.9701 5.68998 15.6401 4.97998 16.3901C3.08998 18.2701 1.40998 19.6501 1.20998 19.4501C1.00998 19.2501 2.38998 17.5701 4.26998 15.6801C4.97998 14.9701 5.64998 14.3401 6.26998 13.8301L6.99998 13.1601C6.82527 12.9127 6.70901 12.6289 6.65998 12.3301C6.38998 12.5201 6.08998 12.7301 5.78998 12.9601C5.00894 13.5797 4.26748 14.2477 3.56998 14.9601C1.06998 17.4201 -0.460023 19.9001 0.129977 20.4901Z" fill="#0B193D"/>
</g>
<defs>
<clipPath id="clip0">
<rect width="17.22" height="20.61" fill="white"/>
</clipPath>
</defs>
</svg>
