<svg width="20" height="24" viewBox="0 0 20 24" fill="none" xmlns="http://www.w3.org/2000/svg">
<path d="M7.13 0H5.71L4.71 1L1 4.71L0 5.71V24H20V0H7.13ZM19 23H1V6.13L6.13 1H19V23Z" fill="#0B193D"/>
<path d="M2.85002 0.0200195L0.0200195 2.85002V4.27002L4.27002 0.0200195H2.85002Z" fill="#0B193D"/>
<path d="M16.54 2H8.53998V3.19H16.54V2Z" fill="#0B193D"/>
<path d="M16.54 8.16996L15.83 7.45996L13.29 9.99996H6.71002L4.17002 7.45996L3.46002 8.16996L6.00002 10.71V17.29L3.46002 19.83L4.17002 20.54L6.71002 18H13.29L15.83 20.54L16.54 19.83L14 17.29V10.71L16.54 8.16996ZM7.00002 11H13V17H7.00002V11Z" fill="#0B193D"/>
</svg>
