<svg width="24" height="24" viewBox="0 0 24 24" fill="none" xmlns="http://www.w3.org/2000/svg">
<g clip-path="url(#clip0)">
<path d="M18 18V0H17V18H0V19C0 19.6566 0.129329 20.3068 0.380602 20.9134C0.631876 21.52 1.00017 22.0712 1.46447 22.5355C2.40215 23.4732 3.67392 24 5 24H19C19.6566 24 20.3068 23.8707 20.9134 23.6194C21.52 23.3681 22.0712 22.9998 22.5355 22.5355C22.9998 22.0712 23.3681 21.52 23.6194 20.9134C23.8707 20.3068 24 19.6566 24 19V18H18ZM21.83 21.83C21.4583 22.2013 21.017 22.4958 20.5314 22.6965C20.0458 22.8973 19.5254 23.0004 19 23H5C3.93913 23 2.92172 22.5786 2.17157 21.8284C1.42143 21.0783 1 20.0609 1 19H23C23.0004 19.5254 22.8973 20.0458 22.6965 20.5314C22.4958 21.017 22.2013 21.4583 21.83 21.83Z" fill="#0B193D"/>
<path d="M6.2 17H15H16V1.00001V5.31258e-06C13.988 -0.00188772 12.0078 0.502155 10.2415 1.46577C8.47528 2.42939 6.97967 3.82166 5.89225 5.51451C4.80484 7.20737 4.16054 9.14647 4.01861 11.1535C3.87667 13.1605 4.24166 15.171 5.08 17H6.2ZM15 1.05001V16.05H5.79C5.27026 14.7629 5.00209 13.3881 5 12C5.00111 9.25651 6.02739 6.61245 7.87746 4.58661C9.72754 2.56078 12.2679 1.29941 15 1.05001Z" fill="#0B193D"/>
</g>
<defs>
<clipPath id="clip0">
<rect width="24" height="24" fill="white"/>
</clipPath>
</defs>
</svg>
