<svg width="24" height="24" viewBox="0 0 24 24" fill="none" xmlns="http://www.w3.org/2000/svg">
<path d="M12.5 6.96977V5.92977L15.4 8.82977L16.11 8.11977L12 4.00977L7.89001 8.11977L8.60001 8.82977L11.5 5.92977V6.96977V17.9698V19.0098L8.60001 16.1098L7.89001 16.8198L12 20.9298L16.11 16.8198L15.4 16.1098L12.5 19.0098V17.9698V6.96977Z" fill="#0B193D"/>
<path d="M12 0C5.92 0 1 5.37 1 12C1 18.63 5.92 24 12 24C18.08 24 23 18.63 23 12C23 5.37 18.08 0 12 0ZM12 22.91C6.48 22.91 2 18 2 12C2 6 6.48 1.09 12 1.09C17.52 1.09 22 6 22 12C22 18 17.52 22.91 12 22.91Z" fill="#0B193D"/>
</svg>
