<svg width="24" height="24" viewBox="0 0 24 24" fill="none" xmlns="http://www.w3.org/2000/svg">
<g clip-path="url(#clip0_2208:3098)">
<path d="M2.86102 13.6444C2.65441 13.7413 2.56326 13.9854 2.65533 14.194L3.59907 16.2199C3.64543 16.3208 3.73002 16.3993 3.83405 16.438C3.87963 16.4546 3.92796 16.4631 3.97656 16.4631C4.03738 16.4637 4.0974 16.4507 4.1527 16.4256L11.2831 13.0951L10.6372 19.8478C10.6247 19.9808 10.676 20.1115 10.7754 20.2002C11.088 20.459 11.4776 20.6064 11.8829 20.6196C11.9947 20.6195 12.1058 20.6055 12.2142 20.5779C12.793 20.4268 13.2419 19.911 13.548 19.0301L16.354 10.7213L21.9114 8.12898C23.5472 7.36571 24.3902 5.81804 23.8241 4.61003C23.5028 3.97865 22.8874 3.54914 22.184 3.46494C21.4025 3.34699 20.6038 3.46993 19.894 3.81748L13.4808 6.82469L6.58553 4.12773C5.71719 3.80067 5.02945 3.80908 4.54714 4.15728C4.14245 4.48933 3.9122 4.98845 3.92205 5.51187C3.92626 5.64466 3.99311 5.76747 4.10239 5.84339L8.74542 9.03515L6.08641 10.2935L1.62766 9.16085C1.44496 9.11593 1.25477 9.19828 1.16216 9.3622L0.050828 11.3628C-0.00683384 11.4688 -0.0158969 11.5946 0.0260032 11.7078C0.0676406 11.8212 0.156169 11.9109 0.268997 11.9542L3.56991 13.3175L2.86102 13.6444ZM4.78173 5.30224C4.80642 5.12492 4.89613 4.96349 5.03352 4.84922C5.27271 4.67715 5.70891 4.70237 6.29184 4.92041L12.4324 7.31541L9.63044 8.62403L4.78173 5.30224ZM1.00704 11.3587L1.73681 10.0627L6.02756 11.1279C6.12003 11.1513 6.21762 11.1425 6.30458 11.103L20.2506 4.58915C20.805 4.31568 21.4294 4.21612 22.0415 4.30386C22.4708 4.3434 22.8531 4.59112 23.065 4.96651C23.417 5.72163 22.7251 6.82469 21.5548 7.36992L16.723 9.63501L17.0167 8.76654C17.0909 8.54312 16.9697 8.3017 16.7462 8.22762C16.5225 8.15354 16.2813 8.27477 16.2072 8.4982L12.7552 18.7699C12.5497 19.3531 12.2938 19.7013 12.0086 19.7765C11.832 19.8105 11.6491 19.7759 11.4969 19.6802L12.3358 10.872C12.3578 10.6405 12.1879 10.4349 11.9561 10.413C11.7245 10.3908 11.519 10.5609 11.4969 10.7925L11.367 12.1388L4.16938 15.4942L3.57831 14.2359L4.76084 13.6824C4.91307 13.6152 5.01119 13.4647 5.01119 13.2986C5.01119 13.1323 4.91307 12.9818 4.76084 12.9148L1.00704 11.3587Z" fill="#0B193D"/>
</g>
<defs>
<clipPath id="clip0_2208:3098">
<rect width="24" height="24" fill="white"/>
</clipPath>
</defs>
</svg>
