<svg width="16" height="24" viewBox="0 0 16 24" fill="none" xmlns="http://www.w3.org/2000/svg">
<path d="M8 0C6.47 0 0 6 0 12C0.0860505 16.0604 0.690956 20.0931 1.8 24H14.2C15.308 20.0928 15.9129 16.0603 16 12C16 6 9.23 0 8 0ZM13.49 22.93H2.49C1.51825 19.3653 0.99092 15.6941 0.92 12C0.92 7.15 6.64 1 8 1C9.08 1 15.08 6.79 15.08 12C15.0008 15.6948 14.4668 19.3658 13.49 22.93Z" fill="#0B193D"/>
<path d="M8.50001 6.96977V5.92977L11.4 8.82977L12.11 8.11977L8.00001 4.00977L3.89001 8.11977L4.60001 8.82977L7.50001 5.92977V6.96977V17.9698V19.0098L4.60001 16.1098L3.89001 16.8198L8.00001 20.9298L12.11 16.8198L11.4 16.1098L8.50001 19.0098V17.9698V6.96977Z" fill="#0B193D"/>
</svg>
