<svg width="24" height="19" viewBox="0 0 24 19" fill="none" xmlns="http://www.w3.org/2000/svg">
<g clip-path="url(#clip0)">
<path fill-rule="evenodd" clip-rule="evenodd" d="M12 10C13.3261 10 14.5979 9.47322 15.5355 8.53553C16.4732 7.59785 17 6.32608 17 5C17 3.67392 16.4732 2.40215 15.5355 1.46447C14.5979 0.526784 13.3261 0 12 0C10.6739 0 9.40215 0.526784 8.46447 1.46447C7.52678 2.40215 7 3.67392 7 5C7 6.32608 7.52678 7.59785 8.46447 8.53553C9.40215 9.47322 10.6739 10 12 10ZM12 1C12.7911 1 13.5645 1.2346 14.2223 1.67412C14.8801 2.11365 15.3928 2.73836 15.6955 3.46927C15.9983 4.20017 16.0775 5.00444 15.9231 5.78036C15.7688 6.55629 15.3878 7.26902 14.8284 7.82843C14.269 8.38784 13.5563 8.7688 12.7804 8.92314C12.0044 9.07748 11.2002 8.99827 10.4693 8.69552C9.73836 8.39277 9.11365 7.88008 8.67412 7.22228C8.2346 6.56448 8 5.79113 8 5C8 3.93913 8.42143 2.92172 9.17157 2.17157C9.92172 1.42143 10.9391 1 12 1Z" fill="#0B193D"/>
<path fill-rule="evenodd" clip-rule="evenodd" d="M19.5 14C19.7443 14.3618 19.9584 14.7431 20.14 15.14C20.9704 15.3869 21.6983 15.8967 22.214 16.5928C22.7298 17.2889 23.0056 18.1337 23 19H24C24.0201 17.7523 23.5673 16.5433 22.7325 15.6157C21.8977 14.6882 20.7429 14.111 19.5 14Z" fill="#0B193D"/>
<path fill-rule="evenodd" clip-rule="evenodd" d="M7.89121e-07 19H1C1.00089 18.1388 1.2797 17.3009 1.79498 16.6108C2.31027 15.9208 3.0345 15.4154 3.86 15.17C4.04015 14.7627 4.25423 14.3714 4.5 14C3.2571 14.111 2.10225 14.6882 1.26749 15.6157C0.432723 16.5433 -0.0201003 17.7523 7.89121e-07 19Z" fill="#0B193D"/>
<path fill-rule="evenodd" clip-rule="evenodd" d="M19.86 17.59C19.7915 17.2174 19.6979 16.8499 19.58 16.49C19.58 16.49 19.58 16.38 19.58 16.33C19.4622 15.9877 19.3219 15.6537 19.16 15.33C19.134 15.268 19.104 15.2079 19.07 15.15C19.0441 15.0848 19.0141 15.0213 18.98 14.96C18.8649 14.7657 18.738 14.5787 18.6 14.4C18.54 14.32 18.5 14.23 18.44 14.15L18.38 14.07L18.23 13.9C18.14 13.78 18.04 13.66 17.94 13.55C17.9083 13.5115 17.8713 13.4779 17.83 13.45L17.65 13.27L17.27 12.92C17.13 12.8 16.98 12.69 16.84 12.59L16.69 12.48C15.3426 11.5107 13.7248 10.9893 12.065 10.9893C10.4052 10.9893 8.78738 11.5107 7.44 12.48L7.27 12.6C7.13 12.7 7 12.81 6.87 12.92C6.75295 13.0155 6.64268 13.1191 6.54 13.23L6.3 13.46L6.15 13.61L5.95 13.86L5.8 14.03C5.77338 14.0609 5.74993 14.0944 5.73 14.13C5.69027 14.1741 5.65352 14.2209 5.62 14.27C5.56 14.35 5.52 14.45 5.46 14.53C5.4 14.61 5.25 14.82 5.16 14.97C5.07 15.12 5.09 15.12 5.05 15.2C5.01 15.28 4.95 15.38 4.91 15.47C4.77882 15.7471 4.662 16.0308 4.56 16.32C4.52906 16.3917 4.50235 16.4651 4.48 16.54C4.37236 16.8844 4.28554 17.2351 4.22 17.59C4.22563 17.6264 4.22563 17.6635 4.22 17.7C4.10958 18.1262 4.03598 18.5611 4 19H5C5.00797 17.9174 5.26096 16.8508 5.74 15.88L5.82 15.75C5.94799 15.4895 6.09505 15.2388 6.26 15C6.38127 14.8267 6.51145 14.6598 6.65 14.5C6.71 14.43 6.76 14.35 6.83 14.28C7.47225 13.5902 8.24612 13.036 9.10597 12.65C9.96581 12.264 10.8942 12.0542 11.8365 12.0327C12.7787 12.0113 13.7158 12.1787 14.5923 12.5252C15.4688 12.8716 16.267 13.3901 16.94 14.05L17.11 14.22C17.19 14.3 17.25 14.38 17.32 14.46C17.612 14.8006 17.8699 15.169 18.09 15.56L18.22 15.8C18.3637 16.0774 18.4873 16.3648 18.59 16.66V16.75C18.8418 17.4744 18.9801 18.2333 19 19H20C19.9952 18.5641 19.9551 18.1293 19.88 17.7C19.8781 17.6626 19.8714 17.6256 19.86 17.59Z" fill="#0B193D"/>
<path fill-rule="evenodd" clip-rule="evenodd" d="M19.5 13C19.9945 13 20.4778 12.8534 20.8889 12.5787C21.3 12.304 21.6205 11.9135 21.8097 11.4567C21.9989 10.9999 22.0484 10.4972 21.952 10.0123C21.8555 9.52732 21.6174 9.08187 21.2678 8.73223C20.9181 8.3826 20.4727 8.1445 19.9877 8.04804C19.5028 7.95157 19.0001 8.00108 18.5433 8.1903C18.0865 8.37952 17.696 8.69995 17.4213 9.11108C17.1466 9.5222 17 10.0055 17 10.5C17 11.163 17.2634 11.7989 17.7322 12.2678C18.2011 12.7366 18.837 13 19.5 13ZM19.5 9C19.7967 9 20.0867 9.08797 20.3334 9.2528C20.58 9.41762 20.7723 9.65189 20.8858 9.92598C20.9993 10.2001 21.0291 10.5017 20.9712 10.7926C20.9133 11.0836 20.7704 11.3509 20.5607 11.5607C20.3509 11.7704 20.0836 11.9133 19.7926 11.9712C19.5017 12.0291 19.2001 11.9994 18.926 11.8858C18.6519 11.7723 18.4176 11.58 18.2528 11.3334C18.088 11.0867 18 10.7967 18 10.5C18 10.1022 18.158 9.72065 18.4393 9.43934C18.7206 9.15804 19.1022 9 19.5 9Z" fill="#0B193D"/>
<path fill-rule="evenodd" clip-rule="evenodd" d="M4.5 13C4.99572 13 5.48024 12.8526 5.89199 12.5765C6.30374 12.3004 6.62412 11.9082 6.81243 11.4497C7.00073 10.9911 7.04846 10.4869 6.94954 10.0011C6.85062 9.51538 6.60952 9.07 6.25688 8.7216C5.90424 8.37319 5.45598 8.13748 4.96907 8.04444C4.48216 7.95139 3.97858 8.0052 3.52232 8.19902C3.06606 8.39285 2.67772 8.71795 2.40666 9.133C2.1356 9.54805 1.99405 10.0343 2 10.53C2.00789 11.1878 2.27476 11.816 2.74275 12.2784C3.21074 12.7408 3.84212 13 4.5 13ZM4.5 9C4.79538 9.00006 5.08417 9.08733 5.33015 9.25086C5.57613 9.4144 5.76836 9.64692 5.88272 9.91926C5.99708 10.1916 6.02848 10.4917 5.97299 10.7818C5.91751 11.0719 5.77759 11.3392 5.57081 11.5501C5.36402 11.761 5.09956 11.9062 4.81059 11.9674C4.52162 12.0287 4.22101 12.0032 3.94645 11.8942C3.6719 11.7853 3.43562 11.5977 3.26725 11.355C3.09887 11.1123 3.0059 10.8253 3 10.53C2.99601 10.3305 3.03186 10.1322 3.10545 9.94676C3.17904 9.76129 3.2889 9.59237 3.42859 9.44989C3.56827 9.30741 3.73499 9.19423 3.91896 9.11698C4.10293 9.03973 4.30046 8.99996 4.5 9Z" fill="#0B193D"/>
</g>
<defs>
<clipPath id="clip0">
<rect width="24" height="19" fill="white"/>
</clipPath>
</defs>
</svg>
