<svg width="24" height="24" viewBox="0 0 24 24" fill="none" xmlns="http://www.w3.org/2000/svg">
<g clip-path="url(#clip0_2208:3860)">
<path d="M21.16 4.24977C20.9501 3.99131 20.7264 3.74429 20.49 3.50977C18.8101 1.83571 16.6719 0.696957 14.3452 0.237309C12.0186 -0.222338 9.60793 0.0177329 7.41765 0.927207C5.22736 1.83668 3.35568 3.37477 2.03894 5.34726C0.722207 7.31975 0.0194702 9.63817 0.0194702 12.0098C0.0194702 14.3814 0.722207 16.6998 2.03894 18.6723C3.35568 20.6448 5.22736 22.1829 7.41765 23.0923C9.60793 24.0018 12.0186 24.2419 14.3452 23.7822C16.6719 23.3226 18.8101 22.1838 20.49 20.5098C20.7264 20.2753 20.9501 20.0282 21.16 19.7698C22.9927 17.6033 23.9983 14.8574 23.9983 12.0198C23.9983 9.18211 22.9927 6.43626 21.16 4.26977V4.24977ZM20.45 18.9998C20.2401 19.2582 20.0164 19.5053 19.78 19.7398C18.2414 21.2776 16.2814 22.3248 14.1478 22.7488C12.0141 23.1728 9.80264 22.9547 7.79295 22.122C5.78326 21.2892 4.0656 19.8793 2.85713 18.0705C1.64867 16.2617 1.00366 14.1351 1.00366 11.9598C1.00366 9.7844 1.64867 7.65786 2.85713 5.84904C4.0656 4.04021 5.78326 2.63031 7.79295 1.79759C9.80264 0.964875 12.0141 0.746736 14.1478 1.17076C16.2814 1.59477 18.2414 2.64191 19.78 4.17977C20.0164 4.41429 20.2401 4.66131 20.45 4.91977C22.0963 6.89633 22.9979 9.38738 22.9979 11.9598C22.9979 14.5322 22.0963 17.0232 20.45 18.9998Z" fill="#0B193D"/>
<path d="M17.66 17.66C16.5408 18.7779 15.1154 19.539 13.5638 19.8469C12.0122 20.1549 10.4041 19.996 8.94279 19.3902C7.48149 18.7844 6.23259 17.759 5.35393 16.4436C4.47528 15.1282 4.00631 13.5819 4.00631 12C4.00631 10.4181 4.47528 8.87177 5.35393 7.55637C6.23259 6.24097 7.48149 5.21558 8.94279 4.60982C10.4041 4.00406 12.0122 3.84511 13.5638 4.15307C15.1154 4.46103 16.5408 5.22207 17.66 6.34C17.8933 6.58 18.1133 6.83 18.32 7.09L19.02 6.39C18.8165 6.12598 18.596 5.87545 18.36 5.64C17.1018 4.38021 15.4982 3.52193 13.752 3.17376C12.0059 2.82558 10.1957 3.00316 8.55053 3.68402C6.90534 4.36488 5.49908 5.51842 4.50965 6.99871C3.52022 8.47899 2.9921 10.2195 2.9921 12C2.9921 13.7805 3.52022 15.521 4.50965 17.0013C5.49908 18.4816 6.90534 19.6351 8.55053 20.316C10.1957 20.9968 12.0059 21.1744 13.752 20.8263C15.4982 20.4781 17.1018 19.6198 18.36 18.36C18.596 18.1246 18.8165 17.874 19.02 17.61L18.32 16.91C18.1067 17.17 17.8867 17.42 17.66 17.66Z" fill="#0B193D"/>
<path d="M15.54 15.54C14.8402 16.238 13.9493 16.7129 12.9797 16.9048C12.0102 17.0968 11.0055 16.997 10.0926 16.6182C9.17971 16.2394 8.39956 15.5985 7.85071 14.7765C7.30186 13.9546 7.00894 12.9884 7.00894 12C7.00894 11.0116 7.30186 10.0454 7.85071 9.22346C8.39956 8.40149 9.17971 7.76062 10.0926 7.38181C11.0055 7.003 12.0102 6.90325 12.9797 7.09515C13.9493 7.28705 14.8402 7.762 15.54 8.46C15.7773 8.69669 15.9885 8.95819 16.17 9.24L16.89 8.53C16.336 7.74859 15.6031 7.11115 14.7523 6.671C13.9016 6.23085 12.9578 6.00077 12 6C10.4087 6 8.88258 6.63214 7.75736 7.75736C6.63214 8.88258 6 10.4087 6 12C6 13.5913 6.63214 15.1174 7.75736 16.2426C8.88258 17.3679 10.4087 18 12 18C12.9558 17.9939 13.8967 17.7625 14.7463 17.3247C15.5959 16.8868 16.3304 16.2548 16.89 15.48L16.17 14.76C15.9885 15.0418 15.7773 15.3033 15.54 15.54Z" fill="#0B193D"/>
<path d="M17.66 6.3398L16.24 7.7598L15.54 8.4598C15.7773 8.69649 15.9885 8.95799 16.17 9.2398L16.89 8.5298L18.32 7.0898C18.1067 6.8298 17.8867 6.5798 17.66 6.3398ZM16.89 15.4798L16.17 14.7598L14.7 13.2898L13.93 12.5198C13.8415 12.8585 13.6616 13.1664 13.41 13.4098L14.12 14.1198L19.78 19.7798L20.49 20.4898C20.7264 20.2553 20.9501 20.0083 21.16 19.7498L20.45 18.9998L16.89 15.4798ZM16.17 9.2398L16.89 8.5298L18.32 7.0898L19.02 6.3898L20.45 4.9998L21.16 4.2898C20.9501 4.03135 20.7264 3.78433 20.49 3.5498L18.36 5.6398L17.66 6.3398L16.24 7.7598L15.54 8.4598L14.12 9.8798L13.41 10.5898C13.6616 10.8332 13.8415 11.1411 13.93 11.4798L16.17 9.2398Z" fill="#0B193D"/>
<path d="M14.7 10.71C14.5583 10.4006 14.3618 10.1194 14.12 9.88C13.7006 9.46007 13.1661 9.17398 12.584 9.05792C12.002 8.94186 11.3986 9.00105 10.8502 9.22801C10.3018 9.45496 9.83304 9.83947 9.50323 10.3329C9.17342 10.8263 8.99738 11.4065 8.99738 12C8.99738 12.5935 9.17342 13.1737 9.50323 13.6671C9.83304 14.1605 10.3018 14.545 10.8502 14.772C11.3986 14.999 12.002 15.0581 12.584 14.9421C13.1661 14.826 13.7006 14.5399 14.12 14.12C14.3618 13.8806 14.5583 13.5994 14.7 13.29C14.8976 12.8887 15.0004 12.4473 15.0004 12C15.0004 11.5527 14.8976 11.1113 14.7 10.71ZM13.41 13.41C13.0367 13.7856 12.5296 13.9978 12 14C11.4696 14 10.9609 13.7893 10.5858 13.4142C10.2107 13.0391 10 12.5304 10 12C10 11.4696 10.2107 10.9609 10.5858 10.5858C10.9609 10.2107 11.4696 10 12 10C12.5296 10.0022 13.0367 10.2144 13.41 10.59C13.6616 10.8334 13.8415 11.1413 13.93 11.48C14.0147 11.808 14.0147 12.152 13.93 12.48C13.8484 12.8331 13.6681 13.1556 13.41 13.41Z" fill="#0B193D"/>
</g>
<defs>
<clipPath id="clip0_2208:3860">
<rect width="24" height="24" fill="white"/>
</clipPath>
</defs>
</svg>
