<svg width="21" height="24" viewBox="0 0 21 24" fill="none" xmlns="http://www.w3.org/2000/svg">
<g clip-path="url(#clip0)">
<path d="M18.74 14.7299V15.9999C18.74 16.0874 18.7748 16.1714 18.8366 16.2332C18.8985 16.2951 18.9825 16.3299 19.07 16.3299C19.1575 16.3299 19.2414 16.2951 19.3033 16.2332C19.3652 16.1714 19.4 16.0874 19.4 15.9999V14.7299C19.4 14.6424 19.3652 14.5584 19.3033 14.4966C19.2414 14.4347 19.1575 14.3999 19.07 14.3999C18.9825 14.3999 18.8985 14.4347 18.8366 14.4966C18.7748 14.5584 18.74 14.6424 18.74 14.7299Z" fill="#0B193D"/>
<path d="M16.49 14.7299V15.9999C16.49 16.0874 16.5248 16.1714 16.5866 16.2332C16.6485 16.2951 16.7325 16.3299 16.82 16.3299C16.9075 16.3299 16.9914 16.2951 17.0533 16.2332C17.1152 16.1714 17.15 16.0874 17.15 15.9999V14.7299C17.15 14.6424 17.1152 14.5584 17.0533 14.4966C16.9914 14.4347 16.9075 14.3999 16.82 14.3999C16.7325 14.3999 16.6485 14.4347 16.5866 14.4966C16.5248 14.5584 16.49 14.6424 16.49 14.7299Z" fill="#0B193D"/>
<path d="M14.24 14.7299V15.9999C14.24 16.0874 14.2748 16.1714 14.3366 16.2332C14.3985 16.2951 14.4825 16.3299 14.57 16.3299C14.6575 16.3299 14.7414 16.2951 14.8033 16.2332C14.8652 16.1714 14.9 16.0874 14.9 15.9999V14.7299C14.9 14.6424 14.8652 14.5584 14.8033 14.4966C14.7414 14.4347 14.6575 14.3999 14.57 14.3999C14.4825 14.3999 14.3985 14.4347 14.3366 14.4966C14.2748 14.5584 14.24 14.6424 14.24 14.7299Z" fill="#0B193D"/>
<path d="M12.32 14.3999C12.2325 14.3999 12.1485 14.4347 12.0866 14.4966C12.0248 14.5584 11.99 14.6424 11.99 14.7299V15.9999C11.99 16.0874 12.0248 16.1714 12.0866 16.2332C12.1485 16.2951 12.2325 16.3299 12.32 16.3299C12.4075 16.3299 12.4914 16.2951 12.5533 16.2332C12.6152 16.1714 12.65 16.0874 12.65 15.9999V14.7299C12.65 14.6424 12.6152 14.5584 12.5533 14.4966C12.4914 14.4347 12.4075 14.3999 12.32 14.3999Z" fill="#0B193D"/>
<path d="M10.07 14.3999C9.98247 14.3999 9.89853 14.4347 9.83665 14.4966C9.77476 14.5584 9.73999 14.6424 9.73999 14.7299V15.9999C9.73999 16.0874 9.77476 16.1714 9.83665 16.2332C9.89853 16.2951 9.98247 16.3299 10.07 16.3299C10.1575 16.3299 10.2414 16.2951 10.3033 16.2332C10.3652 16.1714 10.4 16.0874 10.4 15.9999V14.7299C10.4 14.6424 10.3652 14.5584 10.3033 14.4966C10.2414 14.4347 10.1575 14.3999 10.07 14.3999Z" fill="#0B193D"/>
<path d="M18.74 18.56V19.85C18.74 19.9375 18.7748 20.0214 18.8366 20.0833C18.8985 20.1452 18.9825 20.18 19.07 20.18C19.1575 20.18 19.2414 20.1452 19.3033 20.0833C19.3652 20.0214 19.4 19.9375 19.4 19.85V18.56C19.4 18.4725 19.3652 18.3885 19.3033 18.3266C19.2414 18.2647 19.1575 18.23 19.07 18.23C18.9825 18.23 18.8985 18.2647 18.8366 18.3266C18.7748 18.3885 18.74 18.4725 18.74 18.56Z" fill="#0B193D"/>
<path d="M16.49 18.56V19.85C16.49 19.9375 16.5248 20.0214 16.5866 20.0833C16.6485 20.1452 16.7325 20.18 16.82 20.18C16.9075 20.18 16.9914 20.1452 17.0533 20.0833C17.1152 20.0214 17.15 19.9375 17.15 19.85V18.56C17.15 18.4725 17.1152 18.3885 17.0533 18.3266C16.9914 18.2647 16.9075 18.23 16.82 18.23C16.7325 18.23 16.6485 18.2647 16.5866 18.3266C16.5248 18.3885 16.49 18.4725 16.49 18.56Z" fill="#0B193D"/>
<path d="M14.24 18.56V19.85C14.24 19.9375 14.2748 20.0214 14.3366 20.0833C14.3985 20.1452 14.4825 20.18 14.57 20.18C14.6575 20.18 14.7414 20.1452 14.8033 20.0833C14.8652 20.0214 14.9 19.9375 14.9 19.85V18.56C14.9 18.4725 14.8652 18.3885 14.8033 18.3266C14.7414 18.2647 14.6575 18.23 14.57 18.23C14.4825 18.23 14.3985 18.2647 14.3366 18.3266C14.2748 18.3885 14.24 18.4725 14.24 18.56Z" fill="#0B193D"/>
<path d="M12.32 18.23C12.2325 18.23 12.1485 18.2647 12.0866 18.3266C12.0248 18.3885 11.99 18.4725 11.99 18.56V19.85C11.99 19.9375 12.0248 20.0214 12.0866 20.0833C12.1485 20.1452 12.2325 20.18 12.32 20.18C12.4075 20.18 12.4914 20.1452 12.5533 20.0833C12.6152 20.0214 12.65 19.9375 12.65 19.85V18.56C12.65 18.4725 12.6152 18.3885 12.5533 18.3266C12.4914 18.2647 12.4075 18.23 12.32 18.23Z" fill="#0B193D"/>
<path d="M10.07 18.23C9.98247 18.23 9.89853 18.2647 9.83665 18.3266C9.77476 18.3885 9.73999 18.4725 9.73999 18.56V19.85C9.73999 19.9375 9.77476 20.0214 9.83665 20.0833C9.89853 20.1452 9.98247 20.18 10.07 20.18C10.1575 20.18 10.2414 20.1452 10.3033 20.0833C10.3652 20.0214 10.4 19.9375 10.4 19.85V18.56C10.4 18.4725 10.3652 18.3885 10.3033 18.3266C10.2414 18.2647 10.1575 18.23 10.07 18.23Z" fill="#0B193D"/>
<path d="M18.74 22.3798V23.6698C18.74 23.7573 18.7748 23.8413 18.8366 23.9032C18.8985 23.965 18.9825 23.9998 19.07 23.9998C19.1575 23.9998 19.2414 23.965 19.3033 23.9032C19.3652 23.8413 19.4 23.7573 19.4 23.6698V22.3798C19.4 22.2923 19.3652 22.2083 19.3033 22.1465C19.2414 22.0846 19.1575 22.0498 19.07 22.0498C18.9825 22.0498 18.8985 22.0846 18.8366 22.1465C18.7748 22.2083 18.74 22.2923 18.74 22.3798Z" fill="#0B193D"/>
<path d="M16.49 22.3798V23.6698C16.49 23.7573 16.5248 23.8413 16.5866 23.9032C16.6485 23.965 16.7325 23.9998 16.82 23.9998C16.9075 23.9998 16.9914 23.965 17.0533 23.9032C17.1152 23.8413 17.15 23.7573 17.15 23.6698V22.3798C17.15 22.2923 17.1152 22.2083 17.0533 22.1465C16.9914 22.0846 16.9075 22.0498 16.82 22.0498C16.7325 22.0498 16.6485 22.0846 16.5866 22.1465C16.5248 22.2083 16.49 22.2923 16.49 22.3798Z" fill="#0B193D"/>
<path d="M14.24 22.3798V23.6698C14.24 23.7573 14.2748 23.8413 14.3366 23.9032C14.3985 23.965 14.4825 23.9998 14.57 23.9998C14.6575 23.9998 14.7414 23.965 14.8033 23.9032C14.8652 23.8413 14.9 23.7573 14.9 23.6698V22.3798C14.9 22.2923 14.8652 22.2083 14.8033 22.1465C14.7414 22.0846 14.6575 22.0498 14.57 22.0498C14.4825 22.0498 14.3985 22.0846 14.3366 22.1465C14.2748 22.2083 14.24 22.2923 14.24 22.3798Z" fill="#0B193D"/>
<path d="M12 22.3798V23.6698C12 23.7573 12.0348 23.8413 12.0967 23.9032C12.1585 23.965 12.2425 23.9998 12.33 23.9998C12.4175 23.9998 12.5015 23.965 12.5633 23.9032C12.6252 23.8413 12.66 23.7573 12.66 23.6698V22.3798C12.66 22.2923 12.6252 22.2083 12.5633 22.1465C12.5015 22.0846 12.4175 22.0498 12.33 22.0498C12.2425 22.0498 12.1585 22.0846 12.0967 22.1465C12.0348 22.2083 12 22.2923 12 22.3798Z" fill="#0B193D"/>
<path d="M9.73999 22.3798V23.6698C9.73999 23.7573 9.77476 23.8413 9.83665 23.9032C9.89853 23.965 9.98247 23.9998 10.07 23.9998C10.1575 23.9998 10.2414 23.965 10.3033 23.9032C10.3652 23.8413 10.4 23.7573 10.4 23.6698V22.3798C10.4 22.2923 10.3652 22.2083 10.3033 22.1465C10.2414 22.0846 10.1575 22.0498 10.07 22.0498C9.98247 22.0498 9.89853 22.0846 9.83665 22.1465C9.77476 22.2083 9.73999 22.2923 9.73999 22.3798Z" fill="#0B193D"/>
<path d="M19.07 10.22H18.57V8.14C18.5675 7.42883 18.3047 6.74319 17.8312 6.21256C17.3577 5.68194 16.7063 5.34309 16 5.26V3C16 2.20435 15.6839 1.44129 15.1213 0.87868C14.5587 0.31607 13.7956 0 13 0L3 0C2.20435 0 1.44129 0.31607 0.87868 0.87868C0.31607 1.44129 0 2.20435 0 3L0 24H2.88V3.38C2.88 3.24739 2.93268 3.12021 3.02645 3.02645C3.12021 2.93268 3.24739 2.88 3.38 2.88H12.63C12.7626 2.88 12.8898 2.93268 12.9836 3.02645C13.0773 3.12021 13.13 3.24739 13.13 3.38V5.26C12.4255 5.34535 11.7765 5.68518 11.305 6.21558C10.8336 6.74597 10.5722 7.43036 10.57 8.14V10.22H10.07C9.67218 10.22 9.29064 10.378 9.00934 10.6593C8.72804 10.9406 8.57 11.3222 8.57 11.72V13.22H20.57V11.72C20.57 11.3222 20.412 10.9406 20.1307 10.6593C19.8494 10.378 19.4678 10.22 19.07 10.22ZM12.63 1.88H3.38C2.98218 1.88 2.60064 2.03804 2.31934 2.31934C2.03804 2.60064 1.88 2.98218 1.88 3.38V23H1V3C1 2.46957 1.21071 1.96086 1.58579 1.58579C1.96086 1.21071 2.46957 1 3 1H13C13.5304 1 14.0391 1.21071 14.4142 1.58579C14.7893 1.96086 15 2.46957 15 3V5.22H14.13V3.38C14.13 2.98218 13.972 2.60064 13.6907 2.31934C13.4094 2.03804 13.0278 1.88 12.63 1.88ZM11.57 8C11.57 7.53587 11.7544 7.09075 12.0826 6.76256C12.4108 6.43437 12.8559 6.25 13.32 6.25H15.82C16.2841 6.25 16.7292 6.43437 17.0574 6.76256C17.3856 7.09075 17.57 7.53587 17.57 8V10.25H11.57V8ZM19.57 12.25H9.57V11.75C9.57 11.6174 9.62268 11.4902 9.71645 11.3964C9.81021 11.3027 9.93739 11.25 10.07 11.25H19.07C19.2026 11.25 19.3298 11.3027 19.4236 11.3964C19.5173 11.4902 19.57 11.6174 19.57 11.75V12.25Z" fill="#0B193D"/>
</g>
<defs>
<clipPath id="clip0">
<rect width="20.57" height="24" fill="white"/>
</clipPath>
</defs>
</svg>
