<svg width="24" height="24" viewBox="0 0 24 24" fill="none" xmlns="http://www.w3.org/2000/svg">
<g clip-path="url(#clip0_2208:2138)">
<path d="M22.2537 20.2245C22.4958 20.3479 22.7931 20.252 22.9064 20.0051C23.6924 18.2924 24.0649 16.4164 23.9907 14.5289C23.9101 12.4773 23.3045 10.4807 22.2317 8.73002C21.1589 6.97938 19.6549 5.53328 17.8635 4.53005C16.072 3.52681 14.0532 3 12 3C9.9468 3 7.92795 3.52681 6.13654 4.53005C4.34514 5.53328 2.84111 6.97938 1.76832 8.73002C0.695525 10.4807 0.089859 12.4773 0.00925145 14.5289C-0.0649094 16.4164 0.307645 18.2924 1.09361 20.0051C1.20693 20.252 1.50418 20.3479 1.74628 20.2245C1.98837 20.1012 2.08355 19.8053 1.97113 19.558C1.26108 17.9957 0.924895 16.2868 0.992445 14.5675C1.06644 12.6841 1.62245 10.8512 2.60727 9.24413C3.5921 7.63704 4.97281 6.30952 6.61732 5.38854C8.26184 4.46757 10.1152 3.98395 12 3.98395C13.8848 3.98395 15.7382 4.46757 17.3827 5.38854C19.0272 6.30952 20.4079 7.63704 21.3927 9.24413C22.3776 10.8512 22.9336 12.6841 23.0076 14.5675C23.0751 16.2868 22.7389 17.9957 22.0289 19.558C21.9164 19.8053 22.0116 20.1012 22.2537 20.2245Z" fill="#0B193D"/>
<path fill-rule="evenodd" clip-rule="evenodd" d="M12 21C13.1046 21 14 20.1046 14 19C14 17.8954 13.1046 17 12 17C10.8954 17 10 17.8954 10 19C10 20.1046 10.8954 21 12 21ZM12 20C12.5523 20 13 19.5523 13 19C13 18.4477 12.5523 18 12 18C11.4477 18 11 18.4477 11 19C11 19.5523 11.4477 20 12 20Z" fill="#0B193D"/>
<rect x="18.7782" y="11.5" width="1" height="11" rx="0.5" transform="rotate(45 18.7782 11.5)" fill="#0B193D"/>
<circle cx="12" cy="19" r="1" fill="white"/>
</g>
<defs>
<clipPath id="clip0_2208:2138">
<rect width="24" height="24" fill="white"/>
</clipPath>
</defs>
</svg>
