<svg width="16" height="24" viewBox="0 0 16 24" fill="none" xmlns="http://www.w3.org/2000/svg">
<path d="M14.5 10.5H13V9.5H13.38C13.8088 9.49738 14.2194 9.32586 14.5226 9.02261C14.8259 8.71937 14.9974 8.30884 15 7.88V2.88C15.3125 2.74829 15.5712 2.51455 15.7338 2.21691C15.8964 1.91927 15.9534 1.57531 15.8954 1.24115C15.8374 0.906988 15.6678 0.602349 15.4144 0.37694C15.161 0.151531 14.8386 0.0186577 14.5 0L1.5 0C1.14823 0.00272918 0.808607 0.129007 0.540504 0.356758C0.2724 0.584509 0.0928713 0.899244 0.0333007 1.24595C-0.0262699 1.59265 0.0379076 1.94926 0.214614 2.25343C0.391321 2.55761 0.669315 2.79001 1 2.91V7.91C1.01039 8.33361 1.18533 8.73652 1.48775 9.03333C1.79016 9.33015 2.19627 9.49753 2.62 9.5H3V10.5H1.5C1.10218 10.5 0.720644 10.658 0.43934 10.9393C0.158035 11.2206 0 11.6022 0 12L0 13.5H1C1 13.5 1 13.57 1 13.61C0.990044 13.7398 0.990044 13.8702 1 14C1.00086 15.3239 1.37713 16.6204 2.08514 17.739C2.79315 18.8577 3.80386 19.7526 5 20.32V24H11V20.32C12.1961 19.7526 13.2069 18.8577 13.9149 17.739C14.6229 16.6204 14.9991 15.3239 15 14C15.01 13.8702 15.01 13.7398 15 13.61C15 13.61 15 13.54 15 13.5H16V12C16 11.6022 15.842 11.2206 15.5607 10.9393C15.2794 10.658 14.8978 10.5 14.5 10.5ZM1 1.56C0.995321 1.54027 0.995321 1.51973 1 1.5C0.995118 1.45012 0.995118 1.39988 1 1.35C1.03301 1.24464 1.09995 1.15317 1.1904 1.08986C1.28085 1.02655 1.38971 0.994951 1.5 1H14.5C14.6069 0.999353 14.7112 1.03299 14.7976 1.09599C14.884 1.15898 14.9479 1.24801 14.98 1.35C14.9849 1.39988 14.9849 1.45012 14.98 1.5C14.9847 1.51973 14.9847 1.54027 14.98 1.56C14.9699 1.68025 14.915 1.7923 14.826 1.87384C14.7371 1.95538 14.6207 2.00042 14.5 2H1.5C1.37592 2.0056 1.25451 1.96288 1.16127 1.88083C1.06803 1.79878 1.01022 1.68378 1 1.56ZM2.5 8.5C2.36739 8.5 2.24021 8.44732 2.14645 8.35355C2.05268 8.25979 2 8.13261 2 8V3H14V8C14 8.13261 13.9473 8.25979 13.8536 8.35355C13.7598 8.44732 13.6326 8.5 13.5 8.5H2.5ZM4 9.5H12V10.5H4V9.5ZM10 23H6V20.71C7.30495 21.0991 8.69505 21.0991 10 20.71V23ZM14 13.61C14.01 13.7398 14.01 13.8702 14 14C13.9989 15.0522 13.7212 16.0856 13.1946 16.9965C12.6681 17.9075 11.9112 18.6639 11 19.19C10.0879 19.7166 9.05322 19.9938 8 19.9938C6.94678 19.9938 5.91212 19.7166 5 19.19C4.08879 18.6639 3.33194 17.9075 2.80538 16.9965C2.27883 16.0856 2.00108 15.0522 2 14C1.99004 13.8702 1.99004 13.7398 2 13.61C2 13.61 2 13.54 2 13.5H14C14 13.5 14 13.57 14 13.61ZM15 12.5H1V12C1 11.8674 1.05268 11.7402 1.14645 11.6464C1.24021 11.5527 1.36739 11.5 1.5 11.5H14.5C14.6326 11.5 14.7598 11.5527 14.8536 11.6464C14.9473 11.7402 15 11.8674 15 12V12.5Z" fill="#0B193D"/>
<path d="M7.42 4.92H5.88C5.74603 4.60047 5.50558 4.33718 5.19948 4.17484C4.89339 4.0125 4.54054 3.96113 4.20086 4.02946C3.86119 4.09779 3.55565 4.2816 3.33613 4.54966C3.11662 4.81773 2.99667 5.15352 2.99667 5.5C2.99667 5.84648 3.11662 6.18227 3.33613 6.45034C3.55565 6.71841 3.86119 6.90222 4.20086 6.97055C4.54054 7.03887 4.89339 6.9875 5.19948 6.82517C5.50558 6.66283 5.74603 6.39953 5.88 6.08H7.42C7.57383 6.08 7.72135 6.0189 7.83012 5.91012C7.9389 5.80135 8 5.65383 8 5.5C8 5.34618 7.9389 5.19865 7.83012 5.08988C7.72135 4.98111 7.57383 4.92 7.42 4.92ZM4.5 6C4.40111 6 4.30444 5.97068 4.22222 5.91574C4.13999 5.8608 4.07591 5.78271 4.03806 5.69134C4.00022 5.59998 3.99032 5.49945 4.00961 5.40246C4.0289 5.30547 4.07652 5.21638 4.14645 5.14645C4.21638 5.07652 4.30547 5.0289 4.40246 5.00961C4.49945 4.99032 4.59998 5.00022 4.69134 5.03806C4.78271 5.07591 4.8608 5.13999 4.91574 5.22222C4.97068 5.30444 5 5.40111 5 5.5C5 5.63261 4.94732 5.75979 4.85356 5.85356C4.75979 5.94732 4.63261 6 4.5 6Z" fill="#0B193D"/>
</svg>
