<svg width="22" height="21" viewBox="0 0 22 21" fill="none" xmlns="http://www.w3.org/2000/svg">
<g clip-path="url(#clip0)">
<path d="M20.74 8.18994C20.74 13.0099 12.87 19.1899 11 19.1899C9.51 19.1899 1.26 13.3699 1.26 8.18994H0C0 14.1899 9.31 20.1899 11 20.1899C13.1 20.1899 22 14.1899 22 8.18994H20.74Z" fill="#0B193D"/>
<path d="M19.04 4.61H20.08L17.18 7.51L17.89 8.22L22 4.11L17.89 0L17.18 0.71L20.08 3.61H19.04H2.96H1.92L4.82 0.71L4.11 0L0 4.11L4.11 8.22L4.82 7.51L1.92 4.61H2.96H19.04Z" fill="#0B193D"/>
</g>
<defs>
<clipPath id="clip0">
<rect width="22" height="20.19" fill="white"/>
</clipPath>
</defs>
</svg>
