<svg width="24" height="24" viewBox="0 0 24 24" fill="none" xmlns="http://www.w3.org/2000/svg">
<path d="M21.6 2.4H19.8V0H18.6V2.4H5.4V0H4.2V2.4H2.4C1.76348 2.4 1.15303 2.65286 0.702944 3.10294C0.252856 3.55303 0 4.16348 0 4.8L0 21.6C0 22.2365 0.252856 22.847 0.702944 23.2971C1.15303 23.7471 1.76348 24 2.4 24H21.6C22.2365 24 22.847 23.7471 23.2971 23.2971C23.7471 22.847 24 22.2365 24 21.6V4.8C24 4.16348 23.7471 3.55303 23.2971 3.10294C22.847 2.65286 22.2365 2.4 21.6 2.4ZM22.8 21.72C22.8 22.0383 22.6736 22.3435 22.4485 22.5685C22.2235 22.7936 21.9183 22.92 21.6 22.92H2.4C2.08174 22.92 1.77652 22.7936 1.55147 22.5685C1.32643 22.3435 1.2 22.0383 1.2 21.72V8.28H22.8V21.72ZM22.8 7.08H1.2V4.68C1.2 4.36174 1.32643 4.05652 1.55147 3.83147C1.77652 3.60643 2.08174 3.48 2.4 3.48H21.6C21.9183 3.48 22.2235 3.60643 22.4485 3.83147C22.6736 4.05652 22.8 4.36174 22.8 4.68V7.08Z" fill="#0B193D"/>
</svg>
