<svg width="24" height="24" viewBox="0 0 24 24" fill="none" xmlns="http://www.w3.org/2000/svg">
<path d="M6.39564 10.9678C5.94606 10.9678 5.60145 11.1122 5.60145 11.1122L5.50626 11.6774C5.50626 11.6774 5.79054 11.5618 6.22099 11.5618C6.46533 11.5618 6.6438 11.589 6.6438 11.7875C6.6438 11.9081 6.62213 11.9528 6.62213 11.9528C6.62213 11.9528 6.42963 11.937 6.3404 11.937C5.77312 11.937 5.17737 12.1784 5.17737 12.9088C5.17737 13.4842 5.56788 13.6155 5.81051 13.6155C6.27326 13.6155 6.47298 13.3155 6.48318 13.3147L6.4615 13.5654H7.03898L7.29649 11.7594C7.29606 10.9924 6.62765 10.9678 6.39564 10.9678ZM6.07184 13.0661C5.8683 13.0661 5.81519 12.911 5.81519 12.8183C5.81519 12.639 5.9125 12.4232 6.39309 12.4232C6.50527 12.4236 6.51717 12.4351 6.53587 12.4385C6.54861 12.5489 6.46703 13.0661 6.07184 13.0661Z" fill="#0B193D"/>
<path d="M8.48116 11.574C8.57336 11.574 8.92903 11.6033 8.92903 11.6033L9.01189 11.0246C9.01189 11.0246 8.78158 10.9731 8.40679 10.9731C7.92152 10.9731 7.42945 11.1669 7.42945 11.8294C7.42945 12.5807 8.25042 12.5042 8.25042 12.8212C8.25042 13.0319 8.02096 13.0493 7.84419 13.0493C7.53781 13.0493 7.26246 12.9448 7.26161 12.9491L7.17407 13.5231C7.18979 13.5274 7.35977 13.603 7.91005 13.603C8.0575 13.603 8.90184 13.6413 8.90184 12.7697C8.90184 11.9547 8.12039 12.1158 8.12039 11.7882C8.12039 11.625 8.24744 11.574 8.48116 11.574Z" fill="#0B193D"/>
<path d="M9.8609 11.6479H10.2081L10.2918 11.0309H9.96459L10.0313 10.6484H9.37564C9.36119 10.6625 8.98853 12.8054 8.98853 13.0654C8.98853 13.4525 9.20566 13.6242 9.51119 13.6212C9.75042 13.6195 9.93697 13.5533 10.0028 13.535L10.0848 12.9775C10.0398 12.9775 9.97394 12.997 9.91572 12.997C9.68753 12.997 9.66246 12.8751 9.67691 12.7854L9.8609 11.6479Z" fill="#0B193D"/>
<path d="M12.6089 8.06836H11.4386C11.2814 8.28082 11.1335 8.50689 10.9997 8.72785H13.0874C12.9425 8.49754 12.7823 8.27742 12.6089 8.06836Z" fill="#0B193D"/>
<path d="M21.7398 15.4865C21.7271 15.4674 21.7165 15.4529 21.708 15.444C21.7033 15.4397 21.6973 15.4351 21.6897 15.4329C21.708 15.4317 21.7233 15.4249 21.7343 15.4134C21.7449 15.4019 21.7509 15.3883 21.7509 15.3726C21.7509 15.3616 21.7475 15.3509 21.7411 15.3412C21.7347 15.3314 21.7254 15.3242 21.7139 15.3203C21.7033 15.3161 21.685 15.314 21.6599 15.314H21.586V15.5286H21.6208V15.4376H21.6408C21.6527 15.4376 21.6625 15.4402 21.668 15.4453C21.6769 15.4525 21.6897 15.4691 21.7046 15.495L21.7233 15.529H21.7662L21.7398 15.4865ZM21.6625 15.4091H21.62V15.3446H21.6599C21.6765 15.3446 21.6876 15.3458 21.6939 15.3484C21.7007 15.3509 21.705 15.3548 21.7088 15.3594C21.7122 15.3645 21.7139 15.3701 21.7139 15.376C21.7139 15.3858 21.7105 15.3943 21.7033 15.4002C21.6961 15.4057 21.682 15.4091 21.6625 15.4091Z" fill="#0B193D"/>
<path d="M13.4422 9.37451H10.6347C10.4554 9.71403 10.3364 9.97069 10.3029 10.0344H13.7082C13.6313 9.80751 13.5429 9.58783 13.4422 9.37451Z" fill="#0B193D"/>
<path d="M4.37378 10.4468L3.72746 12.3632L3.69389 10.4468H2.73695L2.21259 13.5696H2.84531L3.24431 11.2155L3.30295 13.5696H3.75465L4.59729 11.2155L4.22378 13.5696H4.89516L5.4123 10.4468H4.37378Z" fill="#0B193D"/>
<path d="M17.0265 10.9678C16.5761 10.9678 16.2319 11.1122 16.2319 11.1122L16.1363 11.6774C16.1363 11.6774 16.421 11.5618 16.851 11.5618C17.0953 11.5618 17.2742 11.589 17.2742 11.7875C17.2742 11.9081 17.2517 11.9528 17.2517 11.9528C17.2517 11.9528 17.0596 11.937 16.9696 11.937C16.4027 11.937 15.8074 12.1784 15.8074 12.9088C15.8074 13.4842 16.1983 13.6155 16.4405 13.6155C16.9028 13.6155 17.1026 13.3155 17.1132 13.3147L17.0915 13.5654H17.6686L17.9261 11.7594C17.9273 10.9924 17.2585 10.9678 17.0265 10.9678ZM16.7035 13.0661C16.4996 13.0661 16.4469 12.911 16.4469 12.8183C16.4469 12.639 16.5442 12.4232 17.0248 12.4232C17.1366 12.4236 17.1484 12.4351 17.1676 12.4385C17.1799 12.5489 17.0979 13.0661 16.7035 13.0661Z" fill="#0B193D"/>
<path d="M21.7606 13.2815C21.7432 13.2492 21.7177 13.2246 21.6858 13.2076C21.6544 13.1901 21.6221 13.1816 21.5881 13.1816C21.5554 13.1821 21.5227 13.1906 21.4904 13.2076C21.4585 13.2246 21.4338 13.2492 21.416 13.2815C21.3981 13.3134 21.3892 13.3465 21.3892 13.3809C21.3892 13.4154 21.3981 13.4481 21.416 13.4795C21.4334 13.511 21.4581 13.536 21.4895 13.5539C21.5214 13.5713 21.5541 13.5802 21.5881 13.5802C21.6229 13.5802 21.6561 13.5713 21.6871 13.5539C21.7185 13.536 21.7432 13.511 21.7606 13.4795C21.7789 13.4481 21.787 13.4154 21.787 13.3809C21.787 13.3457 21.7785 13.3125 21.7606 13.2815ZM21.733 13.4629C21.7185 13.4893 21.6981 13.5093 21.6714 13.525C21.645 13.5394 21.6178 13.5471 21.5894 13.5471C21.5605 13.5471 21.5328 13.5394 21.5069 13.525C21.4802 13.5101 21.4602 13.4897 21.4449 13.4629C21.4296 13.4362 21.4228 13.409 21.4228 13.3805C21.4228 13.352 21.43 13.3244 21.4457 13.2976C21.4606 13.2713 21.4806 13.2509 21.5078 13.236C21.535 13.2212 21.5617 13.2148 21.5894 13.2148C21.617 13.2148 21.6442 13.2216 21.6701 13.236C21.6973 13.2509 21.7173 13.2709 21.7321 13.2976C21.747 13.3244 21.7551 13.352 21.7551 13.3805C21.7551 13.409 21.7479 13.4366 21.733 13.4629Z" fill="#0B193D"/>
<path d="M21.6557 13.4479C21.6433 13.4279 21.6323 13.4139 21.6242 13.4054C21.6191 13.4007 21.6136 13.3969 21.6059 13.3944C21.6242 13.3931 21.6391 13.3863 21.6501 13.3748C21.6608 13.3638 21.6671 13.3493 21.6671 13.334C21.6671 13.3234 21.6637 13.3124 21.6569 13.3026C21.6501 13.2932 21.6412 13.286 21.6306 13.2818C21.62 13.2775 21.6013 13.2754 21.5762 13.2754H21.5014V13.4896H21.5362V13.3986H21.5562C21.5685 13.3986 21.5783 13.4012 21.5843 13.4058C21.5932 13.4135 21.6051 13.4296 21.6208 13.4564L21.6391 13.49H21.682L21.6557 13.4479ZM21.5792 13.3693H21.5371V13.3043H21.5762C21.5932 13.3043 21.6042 13.3056 21.611 13.3077C21.6166 13.3107 21.6217 13.3136 21.6251 13.3192C21.6289 13.3247 21.6306 13.3294 21.6306 13.3366C21.6306 13.3459 21.6268 13.354 21.6204 13.36C21.6123 13.3672 21.5991 13.3693 21.5792 13.3693Z" fill="#0B193D"/>
<path d="M19.2548 10.9995C18.9612 10.9995 18.7432 11.4002 18.7432 11.4002L18.8018 11.0318H18.1908L17.7816 13.5737H18.4546C18.6463 12.4876 18.6811 11.6067 19.1362 11.7678C19.2165 11.348 19.2939 11.1852 19.381 11.008C19.381 11.0084 19.3402 10.9995 19.2548 10.9995Z" fill="#0B193D"/>
<path d="M20.946 10.4495L20.8045 11.327C20.8045 11.327 20.558 10.9858 20.1714 10.9858C19.5701 10.9862 19.0695 11.7107 19.0695 12.5427C19.0695 13.0803 19.3368 13.6067 19.8824 13.6067C20.2755 13.6067 20.493 13.3327 20.493 13.3327L20.4646 13.5668H21.1024L21.6038 10.4482L20.946 10.4495ZM20.1144 12.9693C19.8782 12.9693 19.7677 12.7713 19.7677 12.4603C19.7677 11.9516 19.9959 11.6164 20.2844 11.6164C20.5198 11.6168 20.6409 11.7787 20.6409 12.1603C20.6409 12.5066 20.4697 12.9693 20.1144 12.9693Z" fill="#0B193D"/>
<path d="M23.3822 4.22314H0.617847C0.276204 4.22314 0 4.49977 0 4.84099V19.159C0 19.5002 0.276204 19.7768 0.617847 19.7768H23.3822C23.7238 19.7768 24 19.5002 24 19.159V4.84099C24 4.49977 23.7238 4.22314 23.3822 4.22314ZM21.8452 15.5173C21.8273 15.5496 21.8031 15.5743 21.7717 15.5917C21.7402 15.6091 21.7071 15.618 21.6731 15.618C21.6382 15.618 21.6051 15.6091 21.5737 15.5917C21.5426 15.5743 21.518 15.5496 21.4997 15.5173C21.4823 15.4863 21.4734 15.4532 21.4734 15.4188C21.4734 15.3843 21.4823 15.3516 21.5001 15.3193C21.5176 15.287 21.5431 15.2628 21.5745 15.2454C21.6064 15.2288 21.6387 15.2199 21.6727 15.2199C21.7062 15.2199 21.7385 15.2288 21.77 15.2454C21.8018 15.2628 21.8269 15.287 21.8443 15.3193C21.8622 15.3516 21.8707 15.3848 21.8707 15.4188C21.8707 15.4527 21.863 15.4872 21.8452 15.5173ZM22.2905 12.0002C22.2914 15.4018 19.5353 18.1604 16.1333 18.1612C14.5424 18.1617 13.0916 17.5587 11.9987 16.5682C10.9058 17.557 9.45807 18.1595 7.86969 18.1595C4.46983 18.1595 1.71034 15.4005 1.71034 12.0002C1.71034 8.61351 4.44816 5.86252 7.83017 5.84043C7.84334 5.84043 7.85652 5.84043 7.86969 5.84043C9.45807 5.84043 10.9062 6.44297 11.9992 7.43178C13.0916 6.44255 14.5407 5.83958 16.1303 5.83915C19.5323 5.83788 22.2905 8.59524 22.2914 11.9972C22.2905 11.9981 22.2905 11.9985 22.2905 12.0002Z" fill="#0B193D"/>
<path d="M11.3682 15.8945C11.5632 16.1333 11.7697 16.3611 11.9979 16.5676C12.003 16.5629 12.0085 16.5587 12.0136 16.5544C12.0136 16.5544 12.0132 16.5544 12.0132 16.554H12.0145C12.2388 16.3496 12.4483 16.1295 12.64 15.8945H11.3682Z" fill="#0B193D"/>
<path d="M12.207 12.5145C12.207 12.5145 12.2932 12.0895 12.2932 11.9166C12.2932 11.4844 12.0782 10.9575 11.3584 10.9575C10.6989 10.9579 10.2106 11.6684 10.2106 12.4715C10.2106 13.3983 10.8221 13.6184 11.3435 13.6184C11.8245 13.6184 12.0361 13.5105 12.0361 13.5105L12.1517 12.8782C12.1517 12.8782 11.7858 13.0397 11.4553 13.0397C10.7511 13.0397 10.8744 12.5145 10.8744 12.5145H12.207ZM11.3605 11.546C11.7306 11.546 11.6622 11.9621 11.6622 11.9952H10.9343C10.9343 11.9523 11.0031 11.546 11.3605 11.546Z" fill="#0B193D"/>
<path d="M15.2826 11.044C15.6162 11.044 15.8843 11.2314 15.8843 11.2314L15.9914 10.5366C15.9914 10.5366 15.5945 10.376 15.2528 10.376C14.496 10.376 13.7596 11.0329 13.7596 12.2665C13.7596 13.0845 14.157 13.6246 14.9397 13.6246C15.1606 13.6246 15.5133 13.5349 15.5133 13.5349L15.6306 12.8193C15.6306 12.8193 15.3094 12.9804 15.0884 12.9804C14.6227 12.9799 14.4361 12.6247 14.4361 12.244C14.4361 11.4693 14.8364 11.044 15.2826 11.044Z" fill="#0B193D"/>
<path d="M10.5459 14.6006C10.6526 14.8296 10.7766 15.0476 10.9096 15.2601H13.095C13.2276 15.0485 13.347 14.8283 13.4537 14.6006H10.5459Z" fill="#0B193D"/>
<path d="M13.7477 11.0001C13.4541 11.0001 13.2365 11.4008 13.2365 11.4008L13.2956 11.0324H12.685L12.2758 13.5743H12.9488C13.1396 12.4886 13.1753 11.6073 13.6304 11.7683C13.7103 11.3481 13.7872 11.1853 13.8743 11.0077C13.8743 11.0077 13.8335 10.9992 13.7477 11.0001Z" fill="#0B193D"/>
</svg>
