<svg width="24" height="24" viewBox="0 0 24 24" fill="none" xmlns="http://www.w3.org/2000/svg">
<path fill-rule="evenodd" clip-rule="evenodd" d="M0.617847 4.22412H23.3822C23.7238 4.22412 24 4.50075 24 4.84197V19.16C24 19.5012 23.7238 19.7778 23.3822 19.7778H0.617847C0.276204 19.7778 0 19.5012 0 19.16V4.84197C0 4.50075 0.276204 4.22412 0.617847 4.22412ZM4.41969 8.92426H1.85822L1.83697 9.04579C3.83031 9.52851 5.14929 10.6945 5.6966 12.0959L5.13952 9.41676C5.04348 9.04749 4.76516 8.93744 4.41969 8.92426ZM3.47805 9.97979L4.95765 15.0347L6.70623 15.0335L9.30807 8.98248H7.55737L5.93924 13.1166L5.76671 12.4924C5.44759 11.7407 4.54164 10.6605 3.47805 9.97979ZM8.94263 15.039H10.5948L11.6286 8.9761H9.97564L8.94263 15.039ZM11.629 14.8061C12.0157 14.9757 12.7292 15.1223 13.4698 15.1299C15.2074 15.1299 16.3347 14.3175 16.3475 13.0597C16.3534 12.37 15.9127 11.8452 14.9596 11.4126C14.3817 11.1313 14.0282 10.9444 14.0316 10.6605C14.0316 10.4085 14.3316 10.1391 14.9783 10.1391C15.5193 10.1306 15.9106 10.2488 16.2149 10.3711L16.364 10.4413L16.5871 9.12695C16.2599 9.00415 15.747 8.87242 15.1071 8.87242C13.4741 8.87242 12.3234 9.69466 12.3144 10.873C12.3042 11.7437 13.1346 12.2298 13.7618 12.5196C14.4051 12.817 14.621 13.0066 14.618 13.2721C14.6133 13.6784 14.1047 13.8641 13.63 13.8641C12.9684 13.8641 12.617 13.7723 12.0744 13.5458L11.8615 13.4493L11.629 14.8061ZM20.4289 14.133C20.479 14.3447 20.6299 15.0415 20.6299 15.0415L22.163 15.0411L20.8258 8.98248H19.5493C19.1533 8.98248 18.8579 9.09083 18.6837 9.48559L16.2306 15.0415H17.9656C17.9656 15.0415 18.2486 14.2941 18.3127 14.1305C18.4019 14.1305 18.8219 14.1311 19.267 14.1317C19.7684 14.1323 20.3015 14.133 20.4289 14.133ZM19.6657 10.617L19.777 11.1397C19.777 11.1397 20.0936 12.5865 20.1599 12.8904H18.7878C18.9238 12.5415 19.446 11.1958 19.446 11.1958C19.4416 11.2034 19.4717 11.1253 19.5136 11.0167C19.5602 10.8959 19.6214 10.7372 19.6657 10.617Z" fill="#0B193D"/>
</svg>
