<svg width="41" height="40" viewBox="0 0 41 40" fill="none" xmlns="http://www.w3.org/2000/svg">
<g clip-path="url(#clip0)">
<path d="M36.7 16.4801V10.0001C36.7438 9.46371 36.6705 8.92419 36.4849 8.41898C36.2994 7.91377 36.0062 7.45497 35.6257 7.07441C35.2451 6.69385 34.7863 6.40065 34.2811 6.21514C33.7759 6.02963 33.2364 5.95626 32.7 6.00012H8.32996C7.79277 5.95272 7.25171 6.02366 6.74489 6.20792C6.23807 6.39218 5.77779 6.68529 5.39646 7.06662C5.01513 7.44794 4.72202 7.90822 4.53776 8.41505C4.3535 8.92187 4.28257 9.46292 4.32996 10.0001V16.5001C3.79257 16.5429 3.26899 16.6918 2.78947 16.9381C2.30995 17.1844 1.884 17.5234 1.53624 17.9353C1.18848 18.3472 0.925798 18.8239 0.763376 19.338C0.600955 19.852 0.542014 20.3932 0.589961 20.9301V26.0001C0.588632 26.2027 0.627558 26.4036 0.70448 26.591C0.781402 26.7785 0.894787 26.9488 1.03805 27.092C1.18132 27.2353 1.35162 27.3487 1.53906 27.4256C1.7265 27.5025 1.92735 27.5414 2.12996 27.5401H2.63996V31.5401C2.66048 31.9345 2.83174 32.306 3.11835 32.5777C3.40496 32.8494 3.78502 33.0007 4.17996 33.0001H5.63996C6.04156 33.0003 6.42732 32.8435 6.715 32.5633C7.00269 32.2831 7.16953 31.9016 7.17996 31.5001V27.5001H34V31.5001C34.0051 31.7032 34.0504 31.9033 34.1333 32.0889C34.2161 32.2744 34.3349 32.4417 34.4827 32.5811C34.6305 32.7206 34.8044 32.8294 34.9945 32.9013C35.1845 32.9732 35.3869 33.0068 35.59 33.0001H37.05C37.4516 33.0003 37.8373 32.8435 38.125 32.5633C38.4127 32.2831 38.5795 31.9016 38.59 31.5001V27.5001H39.1C39.504 27.4896 39.8875 27.3197 40.1667 27.0274C40.4459 26.7351 40.598 26.3442 40.59 25.9401V20.9401C40.6458 19.8375 40.2715 18.7563 39.5459 17.9244C38.8202 17.0924 37.7999 16.5746 36.7 16.4801ZM5.58996 31.5001H4.13996V27.5001H5.58996V31.5001ZM36.9 31.5001H35.46V27.5001H36.91L36.9 31.5001ZM38.9 22.1701H27.7C26.8949 22.9209 25.9099 23.4513 24.84 23.7101H38.92V26.0001H2.08996V23.7101H16.34C15.2701 23.4513 14.285 22.9209 13.48 22.1701H2.08996V20.9301C2.04793 20.528 2.09707 20.1216 2.23373 19.7412C2.37039 19.3607 2.59106 19.0159 2.87932 18.7324C3.16758 18.449 3.51602 18.2341 3.89875 18.1039C4.28147 17.9736 4.68863 17.9313 5.08996 17.9801H10.9C10.6762 17.551 10.5595 17.0741 10.56 16.5901C10.555 16.5402 10.555 16.49 10.56 16.4401H8.84996V12.7601H12.05C12.4351 12.2164 12.8595 11.7017 13.32 11.2201H8.75996C8.35153 11.2201 7.95982 11.3824 7.67102 11.6712C7.38221 11.96 7.21996 12.3517 7.21996 12.7601V16.4401H5.80996V10.0001H5.88996C5.84619 9.66846 5.87897 9.33119 5.98581 9.01417C6.09264 8.69716 6.27068 8.40884 6.50626 8.17132C6.74184 7.93381 7.0287 7.75343 7.34483 7.64401C7.66096 7.53459 7.99796 7.49905 8.32996 7.54012H32.72C33.052 7.49905 33.389 7.53459 33.7051 7.64401C34.0212 7.75343 34.3081 7.93381 34.5437 8.17132C34.7792 8.40884 34.9573 8.69716 35.0641 9.01417C35.1709 9.33119 35.2037 9.66846 35.16 10.0001V16.4601H34V12.7601C34.0013 12.5575 33.9624 12.3567 33.8854 12.1692C33.8085 11.9818 33.6951 11.8115 33.5519 11.6682C33.4086 11.5249 33.2383 11.4116 33.0509 11.3346C32.8634 11.2577 32.6626 11.2188 32.46 11.2201H27.86C28.3233 11.6991 28.7479 12.2141 29.13 12.7601H32.46V16.4401H30.66C30.6649 16.49 30.6649 16.5402 30.66 16.5901C30.6667 17.08 30.5534 17.5641 30.33 18.0001H35.97C36.3682 17.9556 36.7713 18.0013 37.1495 18.1338C37.5276 18.2664 37.8711 18.4823 38.1545 18.7656C38.4378 19.049 38.6537 19.3924 38.7862 19.7706C38.9188 20.1488 38.9645 20.5519 38.92 20.9501L38.9 22.1701Z" fill="#0B193D"/>
<path d="M20.59 8.70996C15.71 8.70996 11.7 13.92 11.7 16.52C11.7553 17.1655 11.9757 17.786 12.34 18.3219C12.7042 18.8577 13.2001 19.2909 13.78 19.58V20.17C13.78 22.08 17.02 23.3 20.59 23.3C24.16 23.3 27.39 22.08 27.4 20.17V19.58C27.9798 19.2909 28.4757 18.8577 28.8399 18.3219C29.2042 17.786 29.4246 17.1655 29.4799 16.52C29.4799 13.93 25.47 8.70996 20.59 8.70996ZM20.59 22.25C18.85 22.25 16.51 21.9 15.33 20.95C18.7681 19.9452 22.4219 19.9452 25.86 20.95C24.65 21.92 22.28 22.25 20.59 22.25ZM26.36 20C22.5985 18.8547 18.5814 18.8547 14.82 20V19.36C14.8195 19.2479 14.8553 19.1386 14.9219 19.0485C14.9886 18.9584 15.0826 18.8923 15.19 18.86C16.9663 18.3052 18.8192 18.0352 20.68 18.06C22.4802 18.0563 24.2707 18.326 25.99 18.86C26.0973 18.8923 26.1913 18.9584 26.258 19.0485C26.3246 19.1386 26.3604 19.2479 26.36 19.36V20ZM27.13 18.49C26.9282 18.1899 26.6273 17.9704 26.28 17.87C25.8 17.73 25.28 17.6 24.85 17.5C25.5344 17.0596 26.0546 16.4059 26.33 15.64C26.375 15.5074 26.3656 15.3623 26.3037 15.2366C26.2418 15.111 26.1326 15.015 26 14.97C25.8673 14.9249 25.7223 14.9343 25.5966 14.9962C25.471 15.0581 25.375 15.1674 25.33 15.3C25.1411 15.8036 24.8018 16.237 24.3581 16.5411C23.9144 16.8453 23.3878 17.0055 22.85 17H21.53C20.92 17 20.29 17 19.65 17H18.51C17.9654 17.0059 17.4325 16.8427 16.9847 16.5328C16.5368 16.2229 16.1963 15.7817 16.01 15.27C15.957 15.1476 15.8583 15.0509 15.735 15.0004C15.6116 14.95 15.4734 14.9498 15.35 15C15.2218 15.0475 15.117 15.1427 15.0573 15.2657C14.9977 15.3886 14.9879 15.5299 15.03 15.66C15.2933 16.413 15.8 17.0569 16.47 17.49C15.95 17.6 15.47 17.73 14.9 17.89C14.5526 17.9904 14.2517 18.2099 14.05 18.51C13.6859 18.3077 13.3764 18.02 13.1482 17.6716C12.92 17.3232 12.7799 16.9245 12.74 16.51C12.74 14.51 16.3 9.73996 20.59 9.73996C24.88 9.73996 28.44 14.47 28.44 16.51C28.3984 16.9228 28.2576 17.3194 28.0295 17.6659C27.8014 18.0125 27.4927 18.2986 27.13 18.5V18.49Z" fill="#0B193D"/>
<path d="M22.71 13.7303C22.5839 13.6766 22.4418 13.6749 22.3144 13.7255C22.1871 13.776 22.0849 13.8748 22.03 14.0003C21.9481 14.2029 21.8236 14.3855 21.6649 14.5356C21.5061 14.6858 21.3168 14.7999 21.11 14.8703V12.8703H21.59C21.6935 12.8339 21.7832 12.7662 21.8466 12.6767C21.9101 12.5871 21.9442 12.4801 21.9442 12.3703C21.9442 12.2605 21.9101 12.1535 21.8466 12.0639C21.7832 11.9743 21.6935 11.9067 21.59 11.8703H21.07V11.3103C21.0921 11.2329 21.0959 11.1514 21.0812 11.0723C21.0664 10.9932 21.0336 10.9186 20.9851 10.8543C20.9366 10.7901 20.8739 10.7379 20.8019 10.702C20.7298 10.6661 20.6504 10.6475 20.57 10.6475C20.4895 10.6475 20.4101 10.6661 20.338 10.702C20.266 10.7379 20.2033 10.7901 20.1548 10.8543C20.1064 10.9186 20.0735 10.9932 20.0587 11.0723C20.044 11.1514 20.0478 11.2329 20.07 11.3103V11.8303H19.59C19.4864 11.8667 19.3967 11.9343 19.3333 12.0239C19.2698 12.1135 19.2357 12.2205 19.2357 12.3303C19.2357 12.4401 19.2698 12.5471 19.3333 12.6367C19.3967 12.7262 19.4864 12.7939 19.59 12.8303H20.11V14.8303C19.8996 14.7693 19.7049 14.6635 19.5392 14.5203C19.3735 14.377 19.2407 14.1996 19.15 14.0003C19.0956 13.8677 18.9908 13.7621 18.8585 13.7068C18.7263 13.6515 18.5776 13.6509 18.445 13.7053C18.3123 13.7597 18.2068 13.8645 18.1514 13.9967C18.0961 14.1289 18.0956 14.2777 18.15 14.4103C18.3509 14.8804 18.6854 15.2811 19.1121 15.5628C19.5387 15.8444 20.0387 15.9946 20.55 15.9946C21.0612 15.9946 21.5612 15.8444 21.9878 15.5628C22.4145 15.2811 22.749 14.8804 22.95 14.4103C23.0056 14.2879 23.0117 14.1487 22.967 14.0219C22.9222 13.8951 22.8301 13.7906 22.71 13.7303Z" fill="#0B193D"/>
</g>
<defs>
<clipPath id="clip0">
<rect width="40" height="40" fill="white" transform="translate(0.589966)"/>
</clipPath>
</defs>
</svg>
