<svg width="69" height="40" viewBox="0 0 69 40" fill="none" xmlns="http://www.w3.org/2000/svg">
<g clip-path="url(#clip0)">
<path d="M64.7 16.4801V10.0001C64.7439 9.46371 64.6705 8.92419 64.485 8.41898C64.2995 7.91377 64.0063 7.45497 63.6257 7.07441C63.2451 6.69385 62.7863 6.40065 62.2811 6.21514C61.7759 6.02963 61.2364 5.95626 60.7 6.00012H7.69999C7.1628 5.95272 6.62174 6.02366 6.11492 6.20792C5.6081 6.39218 5.14782 6.68529 4.76649 7.06662C4.38516 7.44794 4.09205 7.90822 3.90779 8.41505C3.72353 8.92187 3.6526 9.46292 3.69999 10.0001V16.5001C3.1661 16.5479 2.64686 16.7004 2.17192 16.9489C1.69699 17.1974 1.27569 17.5371 0.932077 17.9485C0.588468 18.3599 0.329293 18.8349 0.169361 19.3465C0.00942957 19.8582 -0.0481235 20.3963 -9.37842e-06 20.9301V26.0001C-0.00133799 26.2027 0.0375882 26.4036 0.11451 26.591C0.191432 26.7785 0.304817 26.9488 0.448084 27.092C0.591352 27.2353 0.761649 27.3487 0.94909 27.4256C1.13653 27.5025 1.33738 27.5414 1.53999 27.5401H2.04999V31.5401C2.07051 31.9345 2.24177 32.306 2.52838 32.5777C2.81499 32.8494 3.19505 33.0007 3.58999 33.0001H5.04999C5.45159 33.0003 5.83735 32.8435 6.12503 32.5633C6.41272 32.2831 6.57956 31.9016 6.58999 31.5001V27.5001H62V31.5001C62.0079 31.9042 62.1753 32.2887 62.4657 32.5697C62.7561 32.8507 63.1459 33.0055 63.55 33.0001H65C65.2026 33.0014 65.4035 32.9625 65.5909 32.8856C65.7783 32.8087 65.9486 32.6953 66.0919 32.552C66.2352 32.4088 66.3486 32.2385 66.4255 32.051C66.5024 31.8636 66.5413 31.6627 66.54 31.4601V27.4601H67.05C67.2526 27.4614 67.4535 27.4225 67.6409 27.3456C67.8283 27.2687 67.9986 27.1553 68.1419 27.012C68.2852 26.8688 68.3986 26.6985 68.4755 26.511C68.5524 26.3236 68.5913 26.1227 68.59 25.9201V20.9201C68.6431 19.8203 68.2672 18.7428 67.5416 17.9146C66.816 17.0864 65.7972 16.5721 64.7 16.4801ZM5.21999 10.0001H5.29999C5.25622 9.66846 5.289 9.33119 5.39584 9.01417C5.50267 8.69716 5.68071 8.40884 5.91629 8.17132C6.15187 7.93381 6.43873 7.75343 6.75486 7.64401C7.07099 7.53459 7.40799 7.49905 7.73999 7.54012H60.74C61.0704 7.50237 61.4051 7.5404 61.7187 7.65129C62.0323 7.76219 62.3165 7.94305 62.5497 8.18015C62.783 8.41725 62.9591 8.70437 63.0649 9.01971C63.1706 9.33505 63.2031 9.67033 63.16 10.0001V16.4601H62V12.7601C62.0013 12.5575 61.9624 12.3567 61.8855 12.1692C61.8085 11.9818 61.6952 11.8115 61.5519 11.6682C61.4086 11.5249 61.2383 11.4116 61.0509 11.3346C60.8634 11.2577 60.6626 11.2188 60.46 11.2201H51.05C50.8474 11.2188 50.6465 11.2577 50.4591 11.3346C50.2716 11.4116 50.1014 11.5249 49.9581 11.6682C49.8148 11.8115 49.7014 11.9818 49.6245 12.1692C49.5476 12.3567 49.5087 12.5575 49.51 12.7601V16.4401H47.7V12.7601C47.7013 12.5575 47.6624 12.3567 47.5855 12.1692C47.5085 11.9818 47.3952 11.8115 47.2519 11.6682C47.1086 11.5249 46.9383 11.4116 46.7509 11.3346C46.5634 11.2577 46.3626 11.2188 46.16 11.2201H36.75C36.5474 11.2188 36.3465 11.2577 36.1591 11.3346C35.9716 11.4116 35.8014 11.5249 35.6581 11.6682C35.5148 11.8115 35.4014 11.9818 35.3245 12.1692C35.2476 12.3567 35.2087 12.5575 35.21 12.7601V16.4401H33.41V12.7601C33.4113 12.5575 33.3724 12.3567 33.2955 12.1692C33.2185 11.9818 33.1052 11.8115 32.9619 11.6682C32.8186 11.5249 32.6483 11.4116 32.4609 11.3346C32.2734 11.2577 32.0726 11.2188 31.87 11.2201H22.46C22.2574 11.2188 22.0565 11.2577 21.8691 11.3346C21.6816 11.4116 21.5114 11.5249 21.3681 11.6682C21.2248 11.8115 21.1114 11.9818 21.0345 12.1692C20.9576 12.3567 20.9187 12.5575 20.92 12.7601V16.4401H19.12V12.7601C19.1213 12.5575 19.0824 12.3567 19.0055 12.1692C18.9285 11.9818 18.8152 11.8115 18.6719 11.6682C18.5286 11.5249 18.3583 11.4116 18.1709 11.3346C17.9834 11.2577 17.7826 11.2188 17.58 11.2201H8.16999C7.96738 11.2188 7.76653 11.2577 7.57909 11.3346C7.39165 11.4116 7.22135 11.5249 7.07808 11.6682C6.93482 11.8115 6.82143 11.9818 6.74451 12.1692C6.66759 12.3567 6.62866 12.5575 6.62999 12.7601V16.4401H5.21999V10.0001ZM60.47 12.7601V16.4401H51.05V12.7601H60.47ZM46.16 16.4401H36.75V12.7601H46.16V16.4401ZM31.87 16.4401H22.46V12.7601H31.87V16.4401ZM17.67 12.7601V16.4401H8.25999V12.7601H17.67ZM4.99999 31.5001H3.54999V27.5001H4.99999V31.5001ZM64.91 31.5001H63.46V27.5001H64.92L64.91 31.5001ZM66.91 25.9801H1.49999V23.7101H66.93L66.91 25.9801ZM66.91 22.1701H1.49999V20.9301C1.45601 20.5276 1.5038 20.1204 1.63977 19.739C1.77575 19.3576 1.99637 19.012 2.28508 18.7281C2.57378 18.4442 2.92306 18.2294 3.30668 18.0999C3.6903 17.9703 4.09828 17.9294 4.49999 17.9801H64C64.4021 17.9274 64.8109 17.9669 65.1954 18.0958C65.58 18.2246 65.9301 18.4393 66.2192 18.7237C66.5084 19.008 66.729 19.3545 66.8643 19.7368C66.9995 20.1191 67.046 20.5272 67 20.9301L66.91 22.1701Z" fill="#0B193D"/>
</g>
<defs>
<clipPath id="clip0">
<rect width="68.59" height="40" fill="white"/>
</clipPath>
</defs>
</svg>
