<svg width="27" height="40" viewBox="0 0 27 40" fill="none" xmlns="http://www.w3.org/2000/svg">
<g clip-path="url(#clip0)">
<path d="M22.585 16.4801V10.0001C22.6289 9.46371 22.5555 8.92419 22.37 8.41898C22.1845 7.91377 21.8913 7.45497 21.5107 7.07441C21.1302 6.69385 20.6714 6.40065 20.1661 6.21514C19.6609 6.02963 19.1214 5.95626 18.585 6.00012H8.25501C7.71782 5.95272 7.17676 6.02366 6.66994 6.20792C6.16311 6.39218 5.70284 6.68529 5.32151 7.06662C4.94018 7.44794 4.64707 7.90822 4.46281 8.41505C4.27855 8.92187 4.20762 9.46292 4.25501 10.0001V16.5001C3.71762 16.5429 3.19404 16.6918 2.71452 16.9381C2.235 17.1844 1.80905 17.5234 1.46129 17.9353C1.11353 18.3472 0.850846 18.8239 0.688425 19.338C0.526004 19.852 0.467063 20.3932 0.515009 20.9301V26.0001C0.513681 26.2027 0.552607 26.4036 0.629529 26.591C0.70645 26.7785 0.819836 26.9488 0.963103 27.092C1.10637 27.2353 1.27667 27.3487 1.46411 27.4256C1.65155 27.5025 1.8524 27.5414 2.05501 27.5401H2.56501V31.5401C2.58553 31.9345 2.75679 32.306 3.0434 32.5777C3.33001 32.8494 3.71007 33.0007 4.10501 33.0001H5.56501C5.96661 33.0003 6.35237 32.8435 6.64005 32.5633C6.92774 32.2831 7.09458 31.9016 7.10501 31.5001V27.5001H19.895V31.5001C19.9029 31.9024 20.0689 32.2854 20.3572 32.5662C20.6454 32.8469 21.0326 33.0028 21.435 33.0001H22.885C23.0876 33.0014 23.2885 32.9625 23.4759 32.8856C23.6634 32.8087 23.8336 32.6953 23.9769 32.552C24.1202 32.4088 24.2336 32.2385 24.3105 32.051C24.3874 31.8636 24.4263 31.6627 24.425 31.4601V27.4601H24.945C25.1481 27.4641 25.3499 27.4279 25.5389 27.3535C25.728 27.2791 25.9004 27.1681 26.0463 27.0268C26.1922 26.8856 26.3088 26.7168 26.3892 26.5303C26.4697 26.3438 26.5124 26.1432 26.515 25.9401V20.9401C26.5704 19.8312 26.1906 18.7444 25.4565 17.9113C24.7224 17.0783 23.6921 16.5647 22.585 16.4801ZM19.635 16.4801V12.7601C19.6363 12.5575 19.5974 12.3567 19.5205 12.1692C19.4436 11.9818 19.3302 11.8115 19.1869 11.6682C19.0436 11.5249 18.8734 11.4116 18.6859 11.3346C18.4985 11.2577 18.2976 11.2188 18.095 11.2201H8.68501C8.4824 11.2188 8.28155 11.2577 8.09411 11.3346C7.90667 11.4116 7.73637 11.5249 7.5931 11.6682C7.44984 11.8115 7.33645 11.9818 7.25953 12.1692C7.18261 12.3567 7.14368 12.5575 7.14501 12.7601V16.4401H5.73501V10.0001H5.81501C5.77124 9.66846 5.80402 9.33119 5.91086 9.01417C6.01769 8.69716 6.19573 8.40884 6.43131 8.17132C6.66689 7.93381 6.95375 7.75343 7.26988 7.64401C7.58601 7.53459 7.92301 7.49905 8.25501 7.54012H18.615C18.9466 7.49868 19.2834 7.53404 19.5992 7.64349C19.915 7.75293 20.2014 7.93351 20.4362 8.17129C20.6711 8.40906 20.8482 8.69765 20.9537 9.01476C21.0593 9.33188 21.0905 9.66901 21.045 10.0001V16.4601L19.635 16.4801ZM18.355 16.4801H22.975H18.355ZM18.185 12.7601V16.4401H8.77501V12.7601H18.185ZM5.51501 31.5001H4.06501V27.5001H5.51501V31.5001ZM22.795 31.5001H21.345V27.5001H22.805L22.795 31.5001ZM24.795 25.9801H2.01501V23.7101H24.815L24.795 25.9801ZM24.795 22.1701H2.01501V20.9301C1.97102 20.5276 2.01882 20.1204 2.15479 19.739C2.29077 19.3576 2.51139 19.012 2.80009 18.7281C3.0888 18.4442 3.43808 18.2294 3.8217 18.0999C4.20531 17.9703 4.6133 17.9294 5.01501 17.9801H21.915C22.3132 17.9356 22.7164 17.9813 23.0945 18.1138C23.4727 18.2464 23.8162 18.4623 24.0995 18.7456C24.3828 19.029 24.5988 19.3724 24.7313 19.7506C24.8638 20.1288 24.9095 20.5319 24.865 20.9301L24.795 22.1701Z" fill="#0B193D"/>
</g>
<defs>
<clipPath id="clip0">
<rect width="25.97" height="40" fill="white" transform="translate(0.515015)"/>
</clipPath>
</defs>
</svg>
