<svg width="41" height="40" viewBox="0 0 41 40" fill="none" xmlns="http://www.w3.org/2000/svg">
<g clip-path="url(#clip0)">
<path d="M38.0489 14.4796V11.5442C38.0489 7.95169 35.5516 6.68115 33.1858 6.68115H7.99413C5.6283 6.68115 3.13104 7.95169 3.13104 11.5442V14.4796C1.68526 14.8301 0.589966 16.1445 0.589966 17.7217V28.0174C0.589966 28.9813 1.37857 29.7699 2.34243 29.7699H3.17485V31.7414C3.17485 32.6176 3.87584 33.3186 4.75207 33.3186H6.50453C7.38076 33.3186 8.08175 32.6176 8.08175 31.7414V29.7699H33.0982V31.7414C33.0982 32.6176 33.7992 33.3186 34.6754 33.3186H36.4279C37.3041 33.3186 38.0051 32.6176 38.0051 31.7414V29.7699H38.8375C39.8014 29.7699 40.59 28.9813 40.59 28.0174V17.7217C40.59 16.1445 39.4947 14.8301 38.0489 14.4796ZM4.66445 11.5881C4.70826 8.82792 6.50453 8.25837 7.99413 8.25837H33.0106C34.5001 8.25837 36.3402 8.82792 36.3402 11.5881V14.5234C34.8945 14.8739 33.7992 16.1883 33.7992 17.7217V18.6417H7.20552V17.7217C7.20552 16.1883 6.11023 14.8739 4.66445 14.5234V11.5881ZM33.7992 20.2189V23.2419H21.0938V20.2189H33.7992ZM19.5166 20.2189V23.2419H7.20552V20.2189H19.5166ZM6.46072 31.7414H4.70826V29.7699H6.46072V31.7414ZM36.3402 31.7414H34.5878V29.7699H36.3402V31.7414ZM38.9251 28.0174C38.9251 28.105 38.8375 28.1927 38.7499 28.1927H36.384H34.6316H6.46072H4.70826H2.34243C2.25481 28.1927 2.16718 28.105 2.16718 28.0174V17.7217C2.16718 16.7578 2.95579 15.9692 3.91965 15.9692C4.8835 15.9692 5.67211 16.7578 5.67211 17.7217V24.0306C5.67211 24.4687 6.0226 24.8192 6.46072 24.8192H34.6316C35.0697 24.8192 35.4202 24.4687 35.4202 24.0306V17.7217C35.4202 16.7578 36.2088 15.9692 37.1727 15.9692C38.1365 15.9692 38.9251 16.7578 38.9251 17.7217V28.0174Z" fill="#0B193D"/>
<path d="M11.7619 11.1494C10.4038 11.1494 9.35229 12.2009 9.35229 13.5591C9.35229 14.8734 10.4476 15.9687 11.7619 15.9687C13.0763 15.9687 14.1716 14.9172 14.1716 13.5591C14.1716 12.2447 13.1201 11.1494 11.7619 11.1494ZM11.7619 14.3915C11.3238 14.3915 10.9295 14.041 10.9295 13.5591C10.9295 13.0771 11.28 12.7266 11.7619 12.7266C12.2 12.7266 12.5944 13.0771 12.5944 13.5591C12.5944 14.041 12.2 14.3915 11.7619 14.3915Z" fill="#0B193D"/>
<path d="M28.8922 11.1494C27.534 11.1494 26.4825 12.2009 26.4825 13.5591C26.5264 14.8734 27.5778 15.9687 28.8922 15.9687C30.2065 15.9687 31.3018 14.9172 31.3018 13.5591C31.3018 12.2447 30.2503 11.1494 28.8922 11.1494ZM28.8922 14.3915C28.4541 14.3915 28.0598 14.041 28.0598 13.5591C28.0598 13.0771 28.4541 12.7266 28.8922 12.7266C29.3303 12.7266 29.7246 13.0771 29.7246 13.5591C29.7246 14.041 29.3741 14.3915 28.8922 14.3915Z" fill="#0B193D"/>
</g>
<defs>
<clipPath id="clip0">
<rect width="40" height="40" fill="white" transform="translate(0.589966)"/>
</clipPath>
</defs>
</svg>
