<svg width="55" height="40" viewBox="0 0 55 40" fill="none" xmlns="http://www.w3.org/2000/svg">
<g clip-path="url(#clip0)">
<path d="M50.755 16.4801V10.0001C50.7988 9.46371 50.7255 8.92419 50.5399 8.41898C50.3544 7.91377 50.0612 7.45497 49.6807 7.07441C49.3001 6.69385 48.8413 6.40065 48.3361 6.21514C47.8309 6.02963 47.2914 5.95626 46.755 6.00012H8.10497C7.56777 5.95272 7.02672 6.02366 6.5199 6.20792C6.01307 6.39218 5.55279 6.68529 5.17147 7.06662C4.79014 7.44794 4.49703 7.90822 4.31277 8.41505C4.12851 8.92187 4.05757 9.46292 4.10497 10.0001V16.5001C3.5667 16.5417 3.04204 16.6896 2.56137 16.9354C2.0807 17.1812 1.65359 17.5199 1.30478 17.9319C0.955981 18.344 0.692422 18.8212 0.52938 19.3358C0.366338 19.8505 0.307055 20.3924 0.354967 20.9301V26.0001C0.353638 26.2027 0.392564 26.4036 0.469486 26.591C0.546408 26.7785 0.659793 26.9488 0.803061 27.092C0.946328 27.2353 1.11662 27.3487 1.30407 27.4256C1.49151 27.5025 1.69236 27.5414 1.89497 27.5401H2.41497V31.5401C2.43306 31.9354 2.60357 32.3083 2.89072 32.5805C3.17786 32.8527 3.5593 33.0031 3.95497 33.0001H5.40497C5.80733 33.0028 6.19457 32.8469 6.48281 32.5662C6.77105 32.2854 6.93709 31.9024 6.94497 31.5001V27.5001H48.055V31.5001C48.0654 31.9016 48.2322 32.2831 48.5199 32.5633C48.8076 32.8435 49.1934 33.0003 49.595 33.0001H51.055C51.4634 33.0001 51.8551 32.8379 52.1439 32.5491C52.4327 32.2603 52.595 31.8685 52.595 31.4601V27.4601H53.105C53.5134 27.4601 53.9051 27.2979 54.1939 27.0091C54.4827 26.7203 54.645 26.3286 54.645 25.9201V20.9201C54.6955 19.8209 54.3188 18.7448 53.5937 17.9171C52.8685 17.0895 51.8513 16.5745 50.755 16.4801ZM5.57497 10.0001H5.66497C5.62119 9.66846 5.65398 9.33119 5.76081 9.01417C5.86765 8.69716 6.04568 8.40884 6.28127 8.17132C6.51685 7.93381 6.80371 7.75343 7.11984 7.64401C7.43597 7.53459 7.77297 7.49905 8.10497 7.54012H46.775C47.107 7.49905 47.444 7.53459 47.7601 7.64401C48.0762 7.75343 48.3631 7.93381 48.5987 8.17132C48.8342 8.40884 49.0123 8.69716 49.1191 9.01417C49.226 9.33119 49.2587 9.66846 49.215 10.0001V16.4601H48.055V12.7601C48.0563 12.5575 48.0174 12.3567 47.9404 12.1692C47.8635 11.9818 47.7501 11.8115 47.6069 11.6682C47.4636 11.5249 47.2933 11.4116 47.1059 11.3346C46.9184 11.2577 46.7176 11.2188 46.515 11.2201H37.105C36.9024 11.2188 36.7015 11.2577 36.5141 11.3346C36.3266 11.4116 36.1563 11.5249 36.0131 11.6682C35.8698 11.8115 35.7564 11.9818 35.6795 12.1692C35.6026 12.3567 35.5636 12.5575 35.565 12.7601V16.4401H33.765V12.7501C33.7663 12.5475 33.7274 12.3467 33.6504 12.1592C33.5735 11.9718 33.4601 11.8015 33.3169 11.6582C33.1736 11.5149 33.0033 11.4016 32.8159 11.3246C32.6284 11.2477 32.4276 11.2088 32.225 11.2101H22.815C22.6124 11.2088 22.4115 11.2477 22.2241 11.3246C22.0366 11.4016 21.8663 11.5149 21.7231 11.6582C21.5798 11.8015 21.4664 11.9718 21.3895 12.1592C21.3126 12.3467 21.2736 12.5475 21.275 12.7501V16.4401H19.485V12.7601C19.485 12.3517 19.3227 11.96 19.0339 11.6712C18.7451 11.3824 18.3534 11.2201 17.945 11.2201H8.52497C8.11653 11.2201 7.72483 11.3824 7.43602 11.6712C7.14722 11.96 6.98497 12.3517 6.98497 12.7601V16.4401H5.57497V10.0001ZM46.515 12.7601V16.4401H37.105V12.7601H46.515ZM32.225 12.7601V16.4501H22.815V12.7501L32.225 12.7601ZM18.025 12.7601V16.4401H8.61497V12.7601H18.025ZM5.35497 31.5001H3.90497V27.5001H5.35497V31.5001ZM50.955 31.5001H49.515V27.5001H50.965L50.955 31.5001ZM52.955 25.9801H1.85497V23.7101H52.975L52.955 25.9801ZM52.955 22.1701H1.85497V20.9301C1.81294 20.528 1.86208 20.1216 1.99874 19.7412C2.1354 19.3607 2.35606 19.0159 2.64432 18.7324C2.93259 18.449 3.28103 18.2341 3.66376 18.1039C4.04648 17.9736 4.45364 17.9313 4.85497 17.9801H50.025C50.4232 17.9356 50.8263 17.9813 51.2045 18.1138C51.5826 18.2464 51.9261 18.4623 52.2095 18.7456C52.4928 19.029 52.7087 19.3724 52.8412 19.7506C52.9738 20.1288 53.0195 20.5319 52.975 20.9301L52.955 22.1701Z" fill="#0B193D"/>
</g>
<defs>
<clipPath id="clip0">
<rect width="54.29" height="40" fill="white" transform="translate(0.35498)"/>
</clipPath>
</defs>
</svg>
