<svg width="41" height="40" viewBox="0 0 41 40" fill="none" xmlns="http://www.w3.org/2000/svg">
<g clip-path="url(#clip0)">
<path d="M36.61 16.4801V10.0001C36.6539 9.46371 36.5805 8.92419 36.395 8.41898C36.2095 7.91377 35.9163 7.45497 35.5357 7.07441C35.1551 6.69385 34.6963 6.40065 34.1911 6.21514C33.6859 6.02963 33.1464 5.95626 32.61 6.00012H8.23999C7.7028 5.95272 7.16175 6.02366 6.65492 6.20792C6.1481 6.39218 5.68782 6.68529 5.30649 7.06662C4.92517 7.44794 4.63205 7.90822 4.44779 8.41505C4.26353 8.92187 4.1926 9.46292 4.23999 10.0001V16.5001C3.70261 16.5429 3.17902 16.6918 2.6995 16.9381C2.21999 17.1844 1.79404 17.5234 1.44628 17.9353C1.09851 18.3472 0.835832 18.8239 0.67341 19.338C0.510989 19.852 0.452049 20.3932 0.499995 20.9301V26.0001C0.498666 26.2027 0.537592 26.4036 0.614514 26.591C0.691436 26.7785 0.804821 26.9488 0.948088 27.092C1.09136 27.2353 1.26165 27.3487 1.44909 27.4256C1.63654 27.5025 1.83739 27.5414 2.03999 27.5401H2.54999V31.5401C2.57051 31.9345 2.74177 32.306 3.02839 32.5777C3.315 32.8494 3.69505 33.0007 4.08999 33.0001H5.54999C5.95159 33.0003 6.33735 32.8435 6.62504 32.5633C6.91272 32.2831 7.07956 31.9016 7.08999 31.5001V27.5001H33.91V31.5001C33.9152 31.7032 33.9605 31.9033 34.0433 32.0889C34.1262 32.2744 34.2449 32.4417 34.3927 32.5811C34.5405 32.7206 34.7144 32.8294 34.9045 32.9013C35.0945 32.9732 35.2969 33.0068 35.5 33.0001H36.96C37.3616 33.0003 37.7474 32.8435 38.035 32.5633C38.3227 32.2831 38.4896 31.9016 38.5 31.5001V27.5001H39.01C39.414 27.4896 39.7975 27.3197 40.0767 27.0274C40.3559 26.7351 40.5081 26.3442 40.5 25.9401V20.9401C40.5559 19.8375 40.1815 18.7563 39.4559 17.9244C38.7302 17.0924 37.7099 16.5746 36.61 16.4801ZM5.71999 10.0001H5.79999C5.75622 9.66846 5.78901 9.33119 5.89584 9.01417C6.00267 8.69716 6.18071 8.40884 6.41629 8.17132C6.65188 7.93381 6.93874 7.75343 7.25487 7.64401C7.571 7.53459 7.90799 7.49905 8.23999 7.54012H32.63C32.962 7.49905 33.299 7.53459 33.6151 7.64401C33.9313 7.75343 34.2181 7.93381 34.4537 8.17132C34.6893 8.40884 34.8673 8.69716 34.9741 9.01417C35.081 9.33119 35.1138 9.66846 35.07 10.0001V16.4601H33.91V12.7601C33.9113 12.5575 33.8724 12.3567 33.7955 12.1692C33.7186 11.9818 33.6052 11.8115 33.4619 11.6682C33.3186 11.5249 33.1483 11.4116 32.9609 11.3346C32.7735 11.2577 32.5726 11.2188 32.37 11.2201H22.96C22.7574 11.2188 22.5565 11.2577 22.3691 11.3346C22.1817 11.4116 22.0114 11.5249 21.8681 11.6682C21.7248 11.8115 21.6114 11.9818 21.5345 12.1692C21.4576 12.3567 21.4187 12.5575 21.42 12.7601V16.4401H19.62V12.7601C19.6213 12.5575 19.5824 12.3567 19.5055 12.1692C19.4286 11.9818 19.3152 11.8115 19.1719 11.6682C19.0286 11.5249 18.8583 11.4116 18.6709 11.3346C18.4835 11.2577 18.2826 11.2188 18.08 11.2201H8.66999C8.46739 11.2188 8.26654 11.2577 8.07909 11.3346C7.89165 11.4116 7.72136 11.5249 7.57809 11.6682C7.43482 11.8115 7.32144 11.9818 7.24451 12.1692C7.16759 12.3567 7.12867 12.5575 7.12999 12.7601V16.4401H5.71999V10.0001ZM32.37 12.7601V16.4401H22.96V12.7601H32.37ZM18.17 12.7601V16.4401H8.75999V12.7601H18.17ZM5.49999 31.5001H4.04999V27.5001H5.49999V31.5001ZM36.81 31.5001H35.37V27.5001H36.82L36.81 31.5001ZM38.81 25.9801H1.99999V23.7101H38.83L38.81 25.9801ZM38.81 22.1701H1.99999V20.9301C1.95601 20.5276 2.0038 20.1204 2.13978 19.739C2.27575 19.3576 2.49638 19.012 2.78508 18.7281C3.07378 18.4442 3.42306 18.2294 3.80668 18.0999C4.1903 17.9703 4.59829 17.9294 4.99999 17.9801H35.88C36.2782 17.9356 36.6814 17.9813 37.0595 18.1138C37.4377 18.2464 37.7811 18.4623 38.0645 18.7456C38.3478 19.029 38.5638 19.3724 38.6963 19.7506C38.8288 20.1288 38.8745 20.5319 38.83 20.9301L38.81 22.1701Z" fill="#0B193D"/>
</g>
<defs>
<clipPath id="clip0">
<rect width="40" height="40" fill="white" transform="translate(0.5)"/>
</clipPath>
</defs>
</svg>
